<?xml version="1.0" encoding="utf-8"?>
<!-- Generator: Adobe Illustrator 15.0.0, SVG Export Plug-In  -->
<!DOCTYPE svg PUBLIC "-//W3C//DTD SVG 1.1//EN" "http://www.w3.org/Graphics/SVG/1.1/DTD/svg11.dtd" [
	<!ENTITY ns_flows "http://ns.adobe.com/Flows/1.0/">
]>
<svg version="1.1"
	 xmlns="http://www.w3.org/2000/svg" xmlns:xlink="http://www.w3.org/1999/xlink" xmlns:a="http://ns.adobe.com/AdobeSVGViewerExtensions/3.0/"
	 x="0px" y="0px" width="48px" height="48px" viewBox="1 0.5 48 48" enable-background="new 1 0.5 48 48" xml:space="preserve">
<defs>
</defs>
<rect id="_x3C_切片_x3E__58_" fill="none" width="48" height="48"/>
<g id="心_3_">
	<g>
		<path fill-rule="evenodd" clip-rule="evenodd" fill="#FFFFFF" d="M38.4,12.2C29.8,6.4,24.3,16,24.3,16v0c0,0-5.5-9.6-14.1-3.8
			C-5.1,25.8,24.3,40.3,24.3,40.3S53.8,25.7,38.4,12.2z"/>
	</g>
</g>
<g id="心_2_">
	<g>
		<path fill-rule="evenodd" clip-rule="evenodd" fill="#FF9000" d="M41.4,12.2C32.8,6.4,27.3,16,27.3,16v0c0,0-5.5-9.6-14.1-3.8
			C-2.1,25.8,27.3,40.3,27.3,40.3S56.8,25.7,41.4,12.2z"/>
	</g>
</g>
<path fill-rule="evenodd" clip-rule="evenodd" fill="none" stroke="#222222" stroke-width="2" stroke-linecap="round" stroke-linejoin="round" stroke-miterlimit="10" d="
	M29.2,38.7c-2.9,1.8-5,2.9-5,2.9S0.8,30,4.8,17.5 M5.5,14.7C6,14,7.7,12.3,9.1,11.5 M12,10c7.5-2.6,12.2,5.6,12.2,5.6
	s5.7-10.5,15.1-4.1c5,4.4,5.6,9,3.9,13.2"/>
<path fill-rule="evenodd" clip-rule="evenodd" fill="#222222" d="M38.7,37.9c0,0.8-0.6,1.4-1.4,1.4l0,0c-0.8,0-1.4-0.6-1.4-1.4V25.7
	c0-0.8,0.6-1.4,1.4-1.4l0,0c0.8,0,1.4,0.6,1.4,1.4V37.9z"/>
<path fill-rule="evenodd" clip-rule="evenodd" fill="#222222" d="M31.3,33.2c-0.8,0-1.4-0.6-1.4-1.4l0,0c0-0.8,0.6-1.4,1.4-1.4h12.2
	c0.8,0,1.4,0.6,1.4,1.4l0,0c0,0.8-0.6,1.4-1.4,1.4H31.3z"/>
</svg>
