<?xml version="1.0" encoding="utf-8"?>
<!-- Generator: Adobe Illustrator 15.0.0, SVG Export Plug-In  -->
<!DOCTYPE svg PUBLIC "-//W3C//DTD SVG 1.1//EN" "http://www.w3.org/Graphics/SVG/1.1/DTD/svg11.dtd" [
	<!ENTITY ns_flows "http://ns.adobe.com/Flows/1.0/">
]>
<svg version="1.1"
	 xmlns="http://www.w3.org/2000/svg" xmlns:xlink="http://www.w3.org/1999/xlink" xmlns:a="http://ns.adobe.com/AdobeSVGViewerExtensions/3.0/"
	 x="0px" y="0px" width="28px" height="29px" viewBox="1 0 28 29" enable-background="new 1 0 28 29" xml:space="preserve">
<defs>
</defs>
<rect id="_x3C_切片_x3E__58_" y="0" fill-rule="evenodd" clip-rule="evenodd" fill="none" width="28" height="28"/>
<path fill-rule="evenodd" clip-rule="evenodd" fill="#FFFFFF" d="M14,0c7.7,0,14,6.3,14,14s-6.3,14-14,14S0,21.7,0,14S6.3,0,14,0z"
	/>
<g id="_x23__xA0_剪贴路径_1_">
	<rect x="0.1" y="0" fill="none" width="28" height="28"/>
</g>
<path fill-rule="evenodd" clip-rule="evenodd" fill="none" stroke="#666666" stroke-width="2" stroke-linecap="round" stroke-linejoin="round" stroke-miterlimit="10" d="
	M10.1,1.6c1.2-0.4,2.5-0.6,3.9-0.6c7.2,0,13,5.8,13,13c0,1.8-0.4,3.6-1.1,5.2 M23.1,23.3c-2.3,2.3-5.6,3.7-9.1,3.7
	c-7.2,0-13-5.8-13-13c0-1.3,0.2-2.6,0.6-3.8 M3.6,6.3c0.7-1,1.6-1.8,2.5-2.5"/>
<g>
	<path fill="#666666" d="M14.2,6.3c1.9,0,3.5,1.6,3.5,3.5c0,1.9-1.6,3.5-3.5,3.5s-3.5-1.6-3.5-3.5C10.7,7.9,12.3,6.3,14.2,6.3
		 M14.2,4.3c-3,0-5.5,2.5-5.5,5.5c0,3,2.5,5.5,5.5,5.5s5.5-2.5,5.5-5.5C19.8,6.8,17.3,4.3,14.2,4.3L14.2,4.3z"/>
</g>
<g>
	<path fill="#666666" d="M15.5,15c2.4,0,4.3,1,4.3,3c0,2-1.9,2.7-4.3,2.7H13c-2.4,0-4.3-0.7-4.3-2.7c0-2,1.9-3,4.3-3H15.5 M15.5,13
		H13c-3.8,0-6.3,2-6.3,5c0,1.1,0.5,4.7,6.3,4.7h2.4c5.8,0,6.3-3.6,6.3-4.7C21.7,15,19.2,13,15.5,13L15.5,13z"/>
</g>
</svg>
