<?xml version="1.0" encoding="utf-8"?>
<!-- Generator: Adobe Illustrator 15.0.0, SVG Export Plug-In  -->
<!DOCTYPE svg PUBLIC "-//W3C//DTD SVG 1.1//EN" "http://www.w3.org/Graphics/SVG/1.1/DTD/svg11.dtd" [
	<!ENTITY ns_flows "http://ns.adobe.com/Flows/1.0/">
]>
<svg version="1.1"
	 xmlns="http://www.w3.org/2000/svg" xmlns:xlink="http://www.w3.org/1999/xlink" xmlns:a="http://ns.adobe.com/AdobeSVGViewerExtensions/3.0/"
	 x="0px" y="0px" width="33px" height="32px" viewBox="0.9 0.5 33 32" enable-background="new 0.9 0.5 33 32" xml:space="preserve">
<defs>
</defs>
<rect id="_x3C_切片_x3E__59_" fill-rule="evenodd" clip-rule="evenodd" fill="none" width="32" height="32"/>
<g id="椭圆_18_1_">
	<g>
		<ellipse fill-rule="evenodd" clip-rule="evenodd" fill="#44B1F0" cx="17.4" cy="16.3" rx="15.5" ry="15.5"/>
	</g>
</g>
<g id="形状_568_4_">
	<g>
		<path fill-rule="evenodd" clip-rule="evenodd" fill="#FFFFFF" d="M26.8,7.9c-0.2-0.2-0.5-0.3-0.7-0.3l-6.6,0c-0.6,0-1,0.5-1,1
			c0,0.6,0.5,1,1,1h4.1l-2.4,2.4c-3-2.3-7.4-2.1-10.2,0.7c-3,3-3,7.9,0,10.9c3,3,7.9,3,11,0c2.8-2.8,3-7.1,0.7-10.1l2.4-2.4v4.1
			c0,0.6,0.5,1,1,1c0.6,0,1-0.5,1-1V8.6C27.1,8.4,27,8.1,26.8,7.9z M20.5,22.3c-2.3,2.3-5.9,2.3-8.2,0c-2.3-2.3-2.3-5.9,0-8.2
			c2.3-2.3,5.9-2.3,8.2,0C22.8,16.4,22.8,20.1,20.5,22.3z"/>
	</g>
</g>
</svg>
