<?xml version="1.0" encoding="utf-8"?>
<!-- Generator: Adobe Illustrator 15.0.0, SVG Export Plug-In  -->
<!DOCTYPE svg PUBLIC "-//W3C//DTD SVG 1.1//EN" "http://www.w3.org/Graphics/SVG/1.1/DTD/svg11.dtd" [
	<!ENTITY ns_flows "http://ns.adobe.com/Flows/1.0/">
]>
<svg version="1.1"
	 xmlns="http://www.w3.org/2000/svg" xmlns:xlink="http://www.w3.org/1999/xlink" xmlns:a="http://ns.adobe.com/AdobeSVGViewerExtensions/3.0/"
	 x="0px" y="0px" width="37px" height="37px" viewBox="0.5 0 37 37" enable-background="new 0.5 0 37 37" xml:space="preserve">
<defs>
</defs>
<rect id="_x3C_切片_x3E__58_" fill="none" width="36" height="36"/>
<g id="圆角矩形_4_9_">
	<g>
		<path fill-rule="evenodd" clip-rule="evenodd" fill="#FFFFFF" d="M13.6,4.6h-7c-1.1,0-2,0.9-2,2v7c0,1.1,0.9,2,2,2h7
			c1.1,0,2-0.9,2-2v-7C15.6,5.5,14.7,4.6,13.6,4.6z"/>
	</g>
</g>
<g id="圆角矩形_4_副本_2_10_">
	<g>
		<path fill-rule="evenodd" clip-rule="evenodd" fill="#FFDE00" d="M15.6,4.6h-7c-1.1,0-2,0.9-2,2v7c0,1.1,0.9,2,2,2h7
			c1.1,0,2-0.9,2-2v-7C17.6,5.5,16.7,4.6,15.6,4.6z"/>
	</g>
</g>
<g id="圆角矩形_4_8_">
	<g>
		<path fill-rule="evenodd" clip-rule="evenodd" fill="#FFFFFF" d="M13.6,20.6h-7c-1.1,0-2,0.9-2,2v7c0,1.1,0.9,2,2,2h7
			c1.1,0,2-0.9,2-2v-7C15.6,21.5,14.7,20.6,13.6,20.6z"/>
	</g>
</g>
<g id="圆角矩形_4_副本_2_9_">
	<g>
		<path fill-rule="evenodd" clip-rule="evenodd" fill="#FFDE00" d="M15.6,20.6h-7c-1.1,0-2,0.9-2,2v7c0,1.1,0.9,2,2,2h7
			c1.1,0,2-0.9,2-2v-7C17.6,21.5,16.7,20.6,15.6,20.6z"/>
	</g>
</g>
<g id="圆角矩形_4_7_">
	<g>
		<path fill-rule="evenodd" clip-rule="evenodd" fill="#FFFFFF" d="M29.6,20.6h-7c-1.1,0-2,0.9-2,2v7c0,1.1,0.9,2,2,2h7
			c1.1,0,2-0.9,2-2v-7C31.6,21.5,30.7,20.6,29.6,20.6z"/>
	</g>
</g>
<g id="圆角矩形_4_副本_2_8_">
	<g>
		<path fill-rule="evenodd" clip-rule="evenodd" fill="#FFDE00" d="M31.6,20.6h-7c-1.1,0-2,0.9-2,2v7c0,1.1,0.9,2,2,2h7
			c1.1,0,2-0.9,2-2v-7C33.6,21.5,32.7,20.6,31.6,20.6z"/>
	</g>
</g>
<g id="椭圆_18_1_">
	<g>
		<circle fill-rule="evenodd" clip-rule="evenodd" fill="#FFFFFF" cx="26.1" cy="10.1" r="5.6"/>
	</g>
</g>
<g id="椭圆_18_副本_1_">
	<g>
		<circle fill-rule="evenodd" clip-rule="evenodd" fill="#3BBDE8" cx="27.8" cy="10.1" r="5.6"/>
	</g>
</g>
<g>
	<path fill="#222222" d="M13.6,20.6c1.1,0,2,0.9,2,2v7c0,1.1-0.9,2-2,2h-7c-1.1,0-2-0.9-2-2v-7c0-1.1,0.9-2,2-2H13.6 M13.6,18.6h-7
		c-2.2,0-4,1.8-4,4v7c0,2.2,1.8,4,4,4h7c2.2,0,4-1.8,4-4v-7C17.6,20.4,15.8,18.6,13.6,18.6L13.6,18.6z"/>
</g>
<g>
	<path fill="#222222" d="M13.6,4.6c1.1,0,2,0.9,2,2v7c0,1.1-0.9,2-2,2h-7c-1.1,0-2-0.9-2-2v-7c0-1.1,0.9-2,2-2H13.6 M13.6,2.6h-7
		c-2.2,0-4,1.8-4,4v7c0,2.2,1.8,4,4,4h7c2.2,0,4-1.8,4-4v-7C17.6,4.4,15.8,2.6,13.6,2.6L13.6,2.6z"/>
</g>
<g>
	<path fill="#222222" d="M29.6,20.6c1.1,0,2,0.9,2,2v7c0,1.1-0.9,2-2,2h-7c-1.1,0-2-0.9-2-2v-7c0-1.1,0.9-2,2-2H29.6 M29.6,18.6h-7
		c-2.2,0-4,1.8-4,4v7c0,2.2,1.8,4,4,4h7c2.2,0,4-1.8,4-4v-7C33.6,20.4,31.8,18.6,29.6,18.6L29.6,18.6z"/>
</g>
<path fill-rule="evenodd" clip-rule="evenodd" fill="none" stroke="#222222" stroke-width="2" stroke-linecap="round" stroke-linejoin="round" stroke-miterlimit="10" d="
	M30.3,5.1c1.4,1.2,2.3,3,2.3,5c0,3.6-2.9,6.5-6.5,6.5s-6.5-2.9-6.5-6.5s2.9-6.5,6.5-6.5"/>
</svg>
