<?xml version="1.0" encoding="utf-8"?>
<!-- Generator: Adobe Illustrator 15.0.0, SVG Export Plug-In  -->
<!DOCTYPE svg PUBLIC "-//W3C//DTD SVG 1.1//EN" "http://www.w3.org/Graphics/SVG/1.1/DTD/svg11.dtd" [
	<!ENTITY ns_flows "http://ns.adobe.com/Flows/1.0/">
]>
<svg version="1.1"
	 xmlns="http://www.w3.org/2000/svg" xmlns:xlink="http://www.w3.org/1999/xlink" xmlns:a="http://ns.adobe.com/AdobeSVGViewerExtensions/3.0/"
	 x="0px" y="0px" width="49px" height="48px" viewBox="1 0.5 49 48" enable-background="new 1 0.5 49 48" xml:space="preserve">
<defs>
</defs>
<rect id="_x3C_切片_x3E__58_" fill="none" width="48" height="48"/>
<g id="形状_18_副本_2_8_">
	<g>
		<path fill-rule="evenodd" clip-rule="evenodd" fill="#FFFFFF" d="M36.9,33.7c2-2.7,3.2-5.9,3.2-9.4c0-9.4-8.5-17-19-17
			c-10.5,0-19,7.6-19,17s8.5,17,19,17c3.2,0,6.2-0.7,8.8-1.9l-0.1,0.1c6.3,5.1,13.8,0,13.8,0C39,38.2,37.4,35.4,36.9,33.7z"/>
	</g>
</g>
<g id="形状_18_副本_2_7_">
	<g>
		<path fill-rule="evenodd" clip-rule="evenodd" fill="#FFDE00" d="M41.9,33.7c2-2.7,3.2-5.9,3.2-9.4c0-9.4-8.5-17-19-17
			c-10.5,0-19,7.6-19,17s8.5,17,19,17c3.2,0,6.2-0.7,8.8-1.9l-0.1,0.1c6.3,5.1,13.8,0,13.8,0C44,38.2,42.4,35.4,41.9,33.7z"/>
	</g>
</g>
<path fill-rule="evenodd" clip-rule="evenodd" fill="none" stroke="#222222" stroke-width="2" stroke-linecap="round" stroke-linejoin="round" stroke-miterlimit="10" d="
	M27.2,8.2c1.2,0.4,2.4,0.9,3.5,1.4 M36.4,14.2c2.4,2.8,3.8,6.3,3.8,10.1c0,3.5-1.2,6.7-3.2,9.4c0.5,1.7,2.1,4.6,6.7,5.8
	c0,0-7.5,5.1-13.9,0l0.1-0.1c-2.6,1.2-5.7,1.9-8.8,1.9c-4.8,0-9.1-1.5-12.5-4.1 M4,32.2c-1.4-2.4-2.2-5.1-2.2-7.9
	c0-8.8,7.6-16.1,17.4-16.9"/>
<g>
	<g>
		<path fill-rule="evenodd" clip-rule="evenodd" fill="#222222" d="M15.3,21.5c-1.4,0-2.6,1.2-2.6,2.7c0,1.5,1.2,2.7,2.6,2.7
			s2.6-1.2,2.6-2.7C17.9,22.8,16.7,21.5,15.3,21.5z M25.7,21.5c-1.4,0-2.6,1.2-2.6,2.7c0,1.5,1.2,2.7,2.6,2.7s2.6-1.2,2.6-2.7
			C28.4,22.8,27.2,21.5,25.7,21.5z"/>
	</g>
</g>
</svg>
