<?xml version="1.0" encoding="utf-8"?>
<!-- Generator: Adobe Illustrator 15.0.0, SVG Export Plug-In  -->
<!DOCTYPE svg PUBLIC "-//W3C//DTD SVG 1.1//EN" "http://www.w3.org/Graphics/SVG/1.1/DTD/svg11.dtd" [
	<!ENTITY ns_flows "http://ns.adobe.com/Flows/1.0/">
]>
<svg version="1.1"
	 xmlns="http://www.w3.org/2000/svg" xmlns:xlink="http://www.w3.org/1999/xlink" xmlns:a="http://ns.adobe.com/AdobeSVGViewerExtensions/3.0/"
	 x="0px" y="0px" width="28px" height="29px" viewBox="1 0 28 29" enable-background="new 1 0 28 29" xml:space="preserve">
<defs>
</defs>
<rect id="_x3C_切片_x3E__58_" fill-rule="evenodd" clip-rule="evenodd" fill="none" width="28" height="28"/>
<g id="_x23__xA0_剪贴路径_1_">
	<rect x="0.5" fill="none" width="28" height="28"/>
</g>
<g>
	<g>
		<path fill-rule="evenodd" clip-rule="evenodd" fill="#FFFFFF" d="M22.9,20c1.2-1.7,2-3.7,2-5.8c0-5.8-5.3-10.5-11.9-10.5
			C6.5,3.8,1.1,8.5,1.1,14.2C1.1,20,6.5,24.7,13,24.7c2,0,3.8-0.4,5.5-1.2l-0.1,0.1c4,3.1,8.6,0,8.6,0C24.2,22.9,23.2,21.1,22.9,20z
			"/>
	</g>
</g>
<path fill-rule="evenodd" clip-rule="evenodd" fill="none" stroke="#666666" stroke-width="2" stroke-linecap="round" stroke-linejoin="round" stroke-miterlimit="10" d="
	M16.8,4.4c0.8,0.2,1.5,0.5,2.2,0.9 M22.5,8.1c1.5,1.7,2.3,3.9,2.3,6.2c0,2.1-0.7,4.1-2,5.8c0.3,1.1,1.3,2.8,4.1,3.6
	c0,0-4.7,3.1-8.6,0l0.1-0.1c-1.6,0.8-3.5,1.2-5.5,1.2c-2.9,0-5.6-1-7.7-2.5 M2.4,19.2c-0.9-1.5-1.4-3.1-1.4-4.9
	c0-5.5,4.7-9.9,10.8-10.4"/>
<path fill-rule="evenodd" clip-rule="evenodd" fill="#666666" d="M9.5,12.8c0.9,0,1.7,0.8,1.7,1.7c0,0.9-0.8,1.7-1.7,1.7
	c-0.9,0-1.7-0.8-1.7-1.7C7.8,13.6,8.5,12.8,9.5,12.8z"/>
<path fill-rule="evenodd" clip-rule="evenodd" fill="#666666" d="M16.5,12.8c0.9,0,1.7,0.8,1.7,1.7c0,0.9-0.8,1.7-1.7,1.7
	c-0.9,0-1.7-0.8-1.7-1.7C14.8,13.6,15.5,12.8,16.5,12.8z"/>
</svg>
