<?xml version="1.0" encoding="utf-8"?>
<!-- Generator: Adobe Illustrator 15.0.0, SVG Export Plug-In  -->
<!DOCTYPE svg PUBLIC "-//W3C//DTD SVG 1.1//EN" "http://www.w3.org/Graphics/SVG/1.1/DTD/svg11.dtd" [
	<!ENTITY ns_flows "http://ns.adobe.com/Flows/1.0/">
]>
<svg version="1.1"
	 xmlns="http://www.w3.org/2000/svg" xmlns:xlink="http://www.w3.org/1999/xlink" xmlns:a="http://ns.adobe.com/AdobeSVGViewerExtensions/3.0/"
	 x="0px" y="0px" width="48px" height="48px" viewBox="1 0.5 48 48" enable-background="new 1 0.5 48 48" xml:space="preserve">
<defs>
</defs>
<rect id="_x3C_切片_x3E__58_" fill="none" width="48" height="48"/>
<g>
	<path fill-rule="evenodd" clip-rule="evenodd" fill="#CCCCCC" d="M24,46.5C11.6,46.5,1.5,36.4,1.5,24S11.6,1.5,24,1.5
		c12.4,0,22.5,10.1,22.5,22.5S36.4,46.5,24,46.5z"/>
	<path fill="#FFFFFF" d="M24,3c11.6,0,21,9.4,21,21s-9.4,21-21,21C12.4,45,3,35.6,3,24S12.4,3,24,3 M24,0C10.7,0,0,10.7,0,24
		s10.7,24,24,24c13.2,0,24-10.7,24-24S37.2,0,24,0L24,0z"/>
</g>
<g id="icon_3_">
	<g>
		<path fill-rule="evenodd" clip-rule="evenodd" fill="#FFFFFF" d="M25.9,24l9.6-9.6c0.4-0.4,0.4-1,0-1.4s-1-0.4-1.4,0l-9.6,9.6
			L14.9,13c-0.4-0.4-1-0.4-1.4,0c-0.4,0.4-0.4,1,0,1.4l9.6,9.6l-9.6,9.6c-0.4,0.4-0.4,1,0,1.4c0.4,0.4,1,0.4,1.4,0l9.6-9.6l9.6,9.6
			c0.4,0.4,1,0.4,1.4,0s0.4-1,0-1.4L25.9,24z"/>
	</g>
</g>
</svg>
