<?xml version="1.0" encoding="utf-8"?>
<!-- Generator: Adobe Illustrator 15.0.0, SVG Export Plug-In  -->
<!DOCTYPE svg PUBLIC "-//W3C//DTD SVG 1.1//EN" "http://www.w3.org/Graphics/SVG/1.1/DTD/svg11.dtd" [
	<!ENTITY ns_flows "http://ns.adobe.com/Flows/1.0/">
]>
<svg version="1.1"
	 xmlns="http://www.w3.org/2000/svg" xmlns:xlink="http://www.w3.org/1999/xlink" xmlns:a="http://ns.adobe.com/AdobeSVGViewerExtensions/3.0/"
	 x="0px" y="0px" width="33px" height="32px" viewBox="0.9 0.5 33 32" enable-background="new 0.9 0.5 33 32" xml:space="preserve">
<defs>
</defs>
<rect id="_x3C_切片_x3E__59_" fill-rule="evenodd" clip-rule="evenodd" fill="none" width="32" height="32"/>
<g id="椭圆_18_1_">
	<g>
		<path fill-rule="evenodd" clip-rule="evenodd" fill="#FF6699" d="M17.3,0.8C8.7,0.8,1.8,7.7,1.8,16.3c0,8.6,6.9,15.5,15.5,15.5
			c8.6,0,15.5-6.9,15.5-15.5C32.8,7.7,25.9,0.8,17.3,0.8z"/>
	</g>
</g>
<g id="形状_568_4_">
	<g>
		<path fill-rule="evenodd" clip-rule="evenodd" fill="#FFFFFF" d="M25,13.4c0-4.3-3.5-7.7-7.7-7.7c-4.3,0-7.7,3.5-7.7,7.8
			c0,4,3,7.2,6.8,7.7v2h-1.9c-0.6,0-1,0.4-1,1s0.5,1,1,1h1.9v1.8c0,0.6,0.4,1,1,1c0.5,0,1-0.5,1-1V25h1.8c0.6,0,1-0.4,1-1
			s-0.5-1-1-1h-1.8v-2C22.1,20.6,25,17.3,25,13.4z M11.5,13.4c0-3.2,2.6-5.8,5.8-5.8c3.2,0,5.8,2.6,5.8,5.8c0,3.2-2.6,5.8-5.8,5.8
			C14.1,19.2,11.5,16.6,11.5,13.4z"/>
	</g>
</g>
</svg>
