<?xml version="1.0" encoding="utf-8"?>
<!-- Generator: Adobe Illustrator 15.0.0, SVG Export Plug-In  -->
<!DOCTYPE svg PUBLIC "-//W3C//DTD SVG 1.1//EN" "http://www.w3.org/Graphics/SVG/1.1/DTD/svg11.dtd" [
	<!ENTITY ns_flows "http://ns.adobe.com/Flows/1.0/">
]>
<svg version="1.1"
	 xmlns="http://www.w3.org/2000/svg" xmlns:xlink="http://www.w3.org/1999/xlink" xmlns:a="http://ns.adobe.com/AdobeSVGViewerExtensions/3.0/"
	 x="0px" y="0px" width="37px" height="37px" viewBox="0.7 0 37 37" enable-background="new 0.7 0 37 37" xml:space="preserve">
<defs>
</defs>
<rect id="_x3C_切片_x3E__58_" x="0.2" fill="none" width="36" height="36"/>
<g id="圆角矩形_3_12_">
	<g>
		<ellipse fill-rule="evenodd" clip-rule="evenodd" fill="#FFDE00" cx="20" cy="18.6" rx="16" ry="16"/>
	</g>
</g>
<g>
	<path fill="#222222" d="M8.6,11.9h6.3v1.2h-2.2v11.4c0.1,1.3-0.6,1.9-2.1,1.9c-0.4,0-0.9,0-1.4,0c0-0.1,0-0.3-0.1-0.7
		c-0.1-0.3-0.1-0.5-0.1-0.6c0.2,0,0.5,0,0.9,0c0.4,0,0.6,0,0.7,0c0.6,0,0.9-0.2,0.8-0.8V13.1H8.6V11.9z M19.3,17h1.3v2.7
		c0,0.8,0,1.6-0.1,2.2c1.8,1.4,3.5,2.7,5.1,4.1l-1,1.1c-0.3-0.3-1.1-0.9-2.3-2c-1.1-0.9-1.8-1.5-2.3-1.9c-0.6,1.5-2.5,2.9-5.6,4
		c-0.2-0.3-0.5-0.7-0.8-1.2c4.2-1,6.1-3.1,5.8-6.1V17z M15.4,15h3.2l0.5-2.3h-3.9v-1.2h10.2v1.2h-4.9L19.9,15h4.7v8.2h-1.3v-6.9
		h-6.5v7h-1.3V15z"/>
</g>
<path fill-rule="evenodd" clip-rule="evenodd" fill="none" stroke="#222222" stroke-width="2" stroke-linecap="round" stroke-linejoin="round" stroke-miterlimit="10" d="
	M21.8,3.3c0.7,0.2,1.5,0.5,2.2,0.9 M27.9,6.9C31,9.8,33,13.9,33,18.6c0,8.8-7.2,16-16,16c-4.3,0-8.2-1.7-11-4.4 M3.3,26.9
	C1.9,24.5,1,21.6,1,18.6C1,10,7.7,3,16.2,2.6"/>
</svg>
