<?xml version="1.0" encoding="utf-8"?>
<!-- Generator: Adobe Illustrator 15.0.0, SVG Export Plug-In  -->
<!DOCTYPE svg PUBLIC "-//W3C//DTD SVG 1.1//EN" "http://www.w3.org/Graphics/SVG/1.1/DTD/svg11.dtd" [
	<!ENTITY ns_flows "http://ns.adobe.com/Flows/1.0/">
]>
<svg version="1.1"
	 xmlns="http://www.w3.org/2000/svg" xmlns:xlink="http://www.w3.org/1999/xlink" xmlns:a="http://ns.adobe.com/AdobeSVGViewerExtensions/3.0/"
	 x="0px" y="0px" width="49px" height="48px" viewBox="1 0.5 49 48" enable-background="new 1 0.5 49 48" xml:space="preserve">
<defs>
</defs>
<rect id="_x3C_切片_x3E__58_" fill="none" width="48" height="48"/>
<g id="圆角矩形_3_副本_2_10_">
	<g>
		<path fill-rule="evenodd" clip-rule="evenodd" fill="#FFFFFF" d="M41.7,5.4H7.7c-1.7,0-3,1.4-3,3v32c0,1.7,1.4,3,3,3h33.9
			c1.7,0,3-1.4,3-3v-32C44.7,6.7,43.3,5.4,41.7,5.4z"/>
	</g>
</g>
<g id="圆角矩形_3_12_">
	<g>
		<path fill-rule="evenodd" clip-rule="evenodd" fill="#A3DC36" d="M43,6H12c-1.7,0-3,1.3-3,3v32c0,1.7,1.4,3,3,3H43
			c1.7,0,3-1.3,3-3V9C46,7.3,44.6,6,43,6z"/>
	</g>
</g>
<g>
	<path fill="#222222" d="M13,21.7h3.1v-8.9h3v8.9H22v2.7h-2.8v2.7l1-1c1.1,1,2.1,2,3,3l-2,2c-0.5-0.6-1.2-1.4-2-2.3v8.9h-3v-7.8
		c-0.8,1.8-1.6,3.4-2.5,4.7c-0.3-1.1-0.6-2.3-1.1-3.8c1.2-1.6,2.4-3.7,3.4-6.4h-3V21.7z M14.7,14.7c0.5,1.9,0.9,3.6,1.3,5.1l-2,0.6
		c-0.4-1.7-0.8-3.4-1.3-5.1L14.7,14.7z M20.8,14.7l2.1,0.6c-0.5,1.7-1,3.4-1.7,5.1l-1.9-0.7L20.8,14.7z M22.5,21.3h6v-1.1h-5V18h5
		v-1.1H23v-2.2h5.5v-2h3.3v2h5.9v2.2h-5.9V18h5.3v2.2h-5.3v1.1h6.3v2.2H22.5V21.3z M26.7,37.6h-3.1V24.5H37V34c0,1.2-0.2,2-0.7,2.6
		s-1.2,0.9-2.1,0.9c-0.9,0-2.3,0-4.2,0c-0.2-0.8-0.4-1.7-0.7-2.6c1.8,0.1,2.9,0.2,3.4,0.2c0.7,0,1.1-0.4,1.1-1.3v-0.3h-7.1V37.6z
		 M33.9,26.9h-7.1v1.2h7.1V26.9z M26.7,31.4h7.1v-1.2h-7.1V31.4z"/>
</g>
<path fill-rule="evenodd" clip-rule="evenodd" fill="none" stroke="#222222" stroke-width="2" stroke-linecap="round" stroke-linejoin="round" stroke-miterlimit="10" d="
	M29.1,43.8H7.8c-1.7,0-3-1.3-3-3l0-17 M4.8,19.3v-3 M33.7,43.8h6.1c1.7,0,3-1.3,3-3v-32c0-1.7-1.4-3-3-3H7.8c-1.7,0-3,1.3-3,3v3"/>
</svg>
