<?xml version="1.0" encoding="utf-8"?>
<!-- Generator: Adobe Illustrator 15.0.0, SVG Export Plug-In  -->
<!DOCTYPE svg PUBLIC "-//W3C//DTD SVG 1.1//EN" "http://www.w3.org/Graphics/SVG/1.1/DTD/svg11.dtd" [
	<!ENTITY ns_flows "http://ns.adobe.com/Flows/1.0/">
]>
<svg version="1.1"
	 xmlns="http://www.w3.org/2000/svg" xmlns:xlink="http://www.w3.org/1999/xlink" xmlns:a="http://ns.adobe.com/AdobeSVGViewerExtensions/3.0/"
	 x="0px" y="0px" width="49px" height="48px" viewBox="0.9 0.5 49 48" enable-background="new 0.9 0.5 49 48" xml:space="preserve">
<defs>
</defs>
<rect id="_x3C_切片_x3E__58_" fill="none" width="48" height="48"/>
<g id="圆角矩形_3_副本_2_11_">
	<g>
		<path fill-rule="evenodd" clip-rule="evenodd" fill="#FFFFFF" d="M41.6,10H7.6c-1.7,0-3,1.4-3,3v27c0,1.7,1.4,3,3,3h33.9
			c1.7,0,3-1.4,3-3V13C44.6,11.4,43.3,10,41.6,10z"/>
	</g>
</g>
<g id="圆角矩形_3_12_">
	<g>
		<path fill-rule="evenodd" clip-rule="evenodd" fill="#FFDE00" d="M43.6,10H11.6c-1.7,0-3,1.3-3,3v27c0,1.7,1.4,3,3,3h31.9
			c1.7,0,3-1.3,3-3V13C46.6,11.3,45.2,10,43.6,10z"/>
	</g>
</g>
<g id="圆角矩形_3_副本_2_10_">
	<g>
		<path fill-rule="evenodd" clip-rule="evenodd" fill="#FF9000" d="M41.6,35H7.6c-1.7,0-3,1.4-3,3V40c0,1.7,1.4,3,3,3h33.9
			c1.7,0,3-1.4,3-3V38C44.6,36.4,43.3,35,41.6,35z"/>
	</g>
</g>
<g id="圆角矩形_5_5_">
	<g>
		<path fill-rule="evenodd" clip-rule="evenodd" fill="#222222" d="M16.1,5c-0.8,0-1.5,0.8-1.5,1.7v6.6c0,0.9,0.7,1.7,1.5,1.7
			s1.5-0.8,1.5-1.7V6.7C17.6,5.8,16.9,5,16.1,5z M32.1,5c-0.8,0-1.5,0.8-1.5,1.7v6.6c0,0.9,0.7,1.7,1.5,1.7s1.5-0.8,1.5-1.7V6.7
			C33.6,5.8,32.9,5,32.1,5z"/>
	</g>
</g>
<path fill-rule="evenodd" clip-rule="evenodd" fill="none" stroke="#222222" stroke-width="2" stroke-linecap="round" stroke-linejoin="round" stroke-miterlimit="10" d="
	M28.9,43H7.7c-1.7,0-3-1.3-3-3l0-12 M4.6,23.5v-3 M4.6,16v-3c0-1.7,1.4-3,3-3h32.9c1.7,0,3,1.3,3,3l0,11.9 M43.6,30.3V40
	c0,1.7-1.4,3-3,3h-7.1"/>
<line fill="none" stroke="#222222" stroke-width="2" stroke-miterlimit="10" x1="4.1" y1="35" x2="44.1" y2="35"/>
<line fill="none" stroke="#222222" stroke-width="2" stroke-linecap="round" stroke-linejoin="round" stroke-miterlimit="10" x1="11.6" y1="28" x2="26.6" y2="28"/>
<line fill="none" stroke="#222222" stroke-width="2" stroke-linecap="round" stroke-linejoin="round" stroke-miterlimit="10" x1="11.6" y1="21" x2="37.6" y2="21"/>
</svg>
