<?xml version="1.0" encoding="utf-8"?>
<!-- Generator: Adobe Illustrator 15.0.0, SVG Export Plug-In  -->
<!DOCTYPE svg PUBLIC "-//W3C//DTD SVG 1.1//EN" "http://www.w3.org/Graphics/SVG/1.1/DTD/svg11.dtd" [
	<!ENTITY ns_flows "http://ns.adobe.com/Flows/1.0/">
]>
<svg version="1.1"
	 xmlns="http://www.w3.org/2000/svg" xmlns:xlink="http://www.w3.org/1999/xlink" xmlns:a="http://ns.adobe.com/AdobeSVGViewerExtensions/3.0/"
	 x="0px" y="0px" width="64px" height="65px" viewBox="1 0 64 65" enable-background="new 1 0 64 65" xml:space="preserve">
<defs>
</defs>
<rect id="_x3C_切片_x3E__58_" fill-rule="evenodd" clip-rule="evenodd" fill="none" width="64" height="64"/>
<g id="形状_568_副本_3_1_">
	<g>
		<path fill-rule="evenodd" clip-rule="evenodd" fill="#FFFFFF" d="M57,8c0-1.7-1.3-3-2.9-3H35.9C34.3,5,33,6.3,33,8
			c0,1.7,1.3,3,2.9,3l10.8,0l-7,7c-8.6-6.1-20.5-5.3-28.2,2.4C2.9,29,2.9,43,11.4,51.5c8.6,8.6,22.5,8.6,31.1,0
			c8.1-8.1,8.6-20.9,1.5-29.5l7-7v11.1c0,1.6,1.3,2.9,3,2.9c1.7,0,3-1.3,3-2.9V8.2C57,8.1,57,8.1,57,8z M39,48
			c-6.6,6.6-17.4,6.6-24,0c-6.6-6.6-6.6-17.4,0-24c6.6-6.6,17.4-6.6,24,0C45.7,30.6,45.7,41.4,39,48z"/>
	</g>
</g>
<g id="形状_568_4_">
	<g>
		<path fill-rule="evenodd" clip-rule="evenodd" fill="#44B1F0" d="M59,8c0-1.7-1.3-3-2.9-3H37.9C36.3,5,35,6.3,35,8
			c0,1.7,1.3,3,2.9,3l10.8,0l-7,7c-8.6-6.1-20.5-5.3-28.2,2.4C4.9,29,4.9,43,13.4,51.5c8.6,8.6,22.5,8.6,31.1,0
			c8.1-8.1,8.6-20.9,1.5-29.5l7-7v11.1c0,1.6,1.3,2.9,3,2.9c1.7,0,3-1.3,3-2.9V8.2C59,8.1,59,8.1,59,8z M41,48
			c-6.6,6.6-17.4,6.6-24,0c-6.6-6.6-6.6-17.4,0-24c6.6-6.6,17.4-6.6,24,0S47.7,41.4,41,48z"/>
	</g>
</g>
<g>
	<path fill="#222222" d="M54.1,4.7c1.6,0,2.9,1.3,2.9,3c0,0.1,0,0.1,0,0.2v18.2c0,1.6-1.3,2.9-3,2.9c-1.7,0-3-1.3-3-2.9V15l-7,7
		c7.1,8.6,6.6,21.4-1.5,29.5C38.3,55.8,32.6,58,27,58s-11.3-2.1-15.6-6.4C2.9,43,2.9,29,11.4,20.4C15.7,16.2,21.3,14,27,14
		c4.4,0,8.9,1.3,12.7,4l7.3-7.3l-11.1,0c-1.6,0-2.9-1.3-2.9-3c0-1.7,1.3-3,2.9-3H54.1 M27,53c4.3,0,8.7-1.7,12-5
		c6.6-6.6,6.6-17.4,0-24c-3.3-3.3-7.7-5-12-5c-4.3,0-8.7,1.7-12,5c-6.6,6.6-6.6,17.4,0,24C18.3,51.3,22.7,53,27,53 M54.1,2.7H35.9
		c-2.7,0-4.9,2.2-4.9,5c0,2.8,2.2,5,4.9,5l6.3,0l-2.8,2.8c-3.7-2.3-8-3.4-12.4-3.4c-6.4,0-12.4,2.5-16.9,7c-4.5,4.5-7,10.6-7,17
		s2.5,12.4,7,17c4.5,4.5,10.6,7,17,7s12.4-2.5,17-7c6.5-6.5,8.5-15.7,6-24c0.9,1.2,2.4,2,4,2c2.8,0,5-2.2,5-4.9V8c0-0.1,0-0.2,0-0.3
		C59,4.9,56.8,2.7,54.1,2.7L54.1,2.7z M46.6,22.2l2.4-2.4v6.2c0,0.1,0,0.2,0,0.3C48.4,25,47.6,23.6,46.6,22.2L46.6,22.2z M27,51
		c-4,0-7.8-1.6-10.6-4.4C13.6,43.8,12,40,12,36c0-4,1.6-7.8,4.4-10.6C19.2,22.6,23,21,27,21c4,0,7.8,1.6,10.6,4.4
		C40.4,28.3,42,32,42,36c0,4-1.6,7.8-4.4,10.6C34.8,49.4,31,51,27,51L27,51z"/>
</g>
</svg>
