<?xml version="1.0" encoding="utf-8"?>
<!-- Generator: Adobe Illustrator 15.0.0, SVG Export Plug-In . SVG Version: 6.00 Build 0)  -->
<!DOCTYPE svg PUBLIC "-//W3C//DTD SVG 1.1//EN" "http://www.w3.org/Graphics/SVG/1.1/DTD/svg11.dtd">
<svg version="1.1" id="图层_1" xmlns="http://www.w3.org/2000/svg" xmlns:xlink="http://www.w3.org/1999/xlink" x="0px" y="0px"
	 width="64px" height="65px" viewBox="0 0 64 65" enable-background="new 0 0 64 65" xml:space="preserve">
<rect id="_x3C_切片_x3E__58_" y="0.4" fill="none" width="64" height="64"/>
<g id="形状_568_副本_5_1_">
	<g>
		<path fill="#FFFFFF" d="M16.6,26.9H4.3H4.2c-0.5,0-1,0.3-1.4,0.6c-0.3,0.3-0.5,0.8-0.5,1.2v0.1v12.3c0,1.101,0.8,2,1.9,2
			c1,0,1.9-0.899,1.9-2v-7.8l5.5,5.5c0.8,0.8,2,0.8,2.8,0c0.8-0.8,0.8-2,0-2.8L9,30.6h7.7c1.1,0,2-0.8,2-1.9
			C18.5,27.8,17.6,26.9,16.6,26.9z"/>
	</g>
</g>
<g id="形状_568_副本_6_1_">
	<g>
		<path fill="#44B1F0" d="M16.6,25.7H4.3H4.2c-0.6,0-1,0.3-1.4,0.7c-0.3,0.3-0.5,0.8-0.5,1.2v0.1V40c0,1.1,0.8,2,1.9,2
			C5.3,42,6,41,6,40v-7.8l5.5,5.5c0.8,0.8,2,0.8,2.8,0c0.8-0.8,0.8-2,0-2.8l-5.4-5.4h7.7c1.1,0,2-0.8,2-1.9
			C18.5,26.5,17.6,25.7,16.6,25.7z"/>
	</g>
</g>
<g>
	<path fill="#FFFFFF" d="M22.4,32c-8.3,0-15,6.7-15,15s6.7,15,15,15c8.3,0,15-6.7,15-15S30.7,32,22.4,32z M22.4,56c-5,0-9-4-9-9
		s4-9,9-9s9,4,9,9S27.4,56,22.4,56z"/>
</g>
<g>
	<path fill="#44B1F0" d="M22.4,30c-8.3,0-15,6.7-15,15s6.7,15,15,15c8.3,0,15-6.7,15-15S30.7,30,22.4,30z M22.4,54c-5,0-9-4-9-9
		s4-9,9-9s9,4,9,9S27.4,54,22.4,54z"/>
</g>
<g>
	<path fill="#FFFFFF" d="M41.4,2c-8.301,0-15,6.7-15,15s6.7,15,15,15c8.3,0,15-6.7,15-15S49.7,2,41.4,2z M41.4,26c-5,0-9-4-9-9
		s4-9,9-9s9,4,9,9S46.4,26,41.4,26z"/>
</g>
<g id="形状_568_副本_8_2_">
	<g>
		<path fill="#FFFFFF" d="M59,31.6l2.6-2.6c0.801-0.8,0.801-2.1-0.1-3c-0.8-0.8-2.2-0.9-3-0.1L56,28.6l-4.1-4.1
			c-0.801-0.8-2.101-0.8-3,0.1c-0.9,0.9-0.9,2.2-0.101,3l4.101,4.1L50.3,34.3c-0.8,0.8-0.8,2.101,0.101,3c0.8,0.8,2.199,0.9,3,0.101
			L56,34.8l2.1,2.101c0.801,0.8,2.101,0.8,3-0.101c0.9-0.8,0.9-2.2,0.101-3L59,31.6z"/>
	</g>
</g>
<g>
	<path fill="#FF6699" d="M41.4,0c-8.301,0-15,6.7-15,15s6.7,15,15,15c8.3,0,15-6.7,15-15S49.7,0,41.4,0z M41.4,24c-5,0-9-4-9-9
		s4-9,9-9s9,4,9,9S46.4,24,41.4,24z"/>
</g>
<g id="形状_568_副本_9_1_">
	<g>
		<path fill="#FF6699" d="M60,30.6l2.6-2.6c0.801-0.8,0.801-2.1-0.1-3c-0.8-0.8-2.2-0.9-3-0.1L57,27.5l-4.1-4.1
			c-0.801-0.8-2.101-0.8-3,0.1c-0.9,0.8-0.9,2.2-0.101,3l4.101,4.1L51.3,33.2c-0.8,0.8-0.8,2.1,0.101,3
			c0.899,0.899,2.199,0.899,3,0.1l2.6-2.6l2.1,2.1c0.801,0.8,2.101,0.8,3-0.1c0.9-0.9,0.9-2.2,0.101-3L60,30.6z"/>
	</g>
</g>
<g>
	<path fill="#222222" d="M41.4,2c8.3,0,15,6.7,15,15c0,3.4-1.101,6.5-3,9l2.6,2.6l2.6-2.6c0.4-0.4,0.9-0.6,1.4-0.6
		c0.6,0,1.1,0.2,1.5,0.6c0.8,0.8,0.9,2.2,0.1,3L59,31.6l2.1,2.1c0.801,0.8,0.801,2.1-0.1,3c-0.4,0.399-1,0.7-1.6,0.7
		c-0.5,0-1-0.2-1.4-0.601l-2.1-2.1L53.3,37.3C52.9,37.7,52.4,37.9,51.9,37.9c-0.601,0-1.101-0.2-1.5-0.601
		c-0.801-0.8-0.9-2.2-0.101-3l2.601-2.6L50.3,29c-2.5,1.9-5.6,3-8.899,3c-8.301,0-15-6.7-15-15S33.1,2,41.4,2 M41.4,26c5,0,9-4,9-9
		s-4-9-9-9s-9,4-9,9S36.4,26,41.4,26 M41.4,0c-9.4,0-17,7.6-17,17s7.6,17,17,17c3.1,0,6-0.8,8.699-2.4l0,0L48.9,32.8
		c-0.801,0.8-1.2,1.8-1.2,2.9c0,1.1,0.5,2.1,1.2,2.899c0.8,0.801,1.8,1.2,3,1.2c1.1,0,2.1-0.399,2.8-1.2l1.2-1.199L56.6,38.1
		C57.4,38.9,58.4,39.3,59.4,39.3c1.1,0,2.199-0.399,3-1.3c0.8-0.8,1.199-1.9,1.3-3c0-1.1-0.4-2.1-1.2-2.8l-0.6-0.6l1.199-1.2
		c0.801-0.8,1.2-1.8,1.2-2.9s-0.5-2.1-1.2-2.9c-0.8-0.8-1.8-1.2-3-1.2c-1.1,0-2.1,0.4-2.8,1.2L56,25.7l0,0c1.6-2.6,2.4-5.6,2.4-8.7
		C58.4,7.6,50.8,0,41.4,0L41.4,0z M41.4,24c-3.9,0-7-3.1-7-7s3.1-7,7-7c3.899,0,7,3.1,7,7S45.2,24,41.4,24L41.4,24z"/>
</g>
<g>
	<path fill="#222222" d="M4.1,26.9h0.1h12.3l0,0c1.1,0,2,0.8,2,1.9c0,1.1-0.9,1.9-2,1.9H8.9l4.4,4.399C15.8,33.2,19,32,22.4,32
		c8.3,0,15,6.7,15,15s-6.7,15-15,15c-8.3,0-15-6.7-15-15c0-3.4,1.2-6.6,3.1-9.1L6,33.5v7.8c0,1.101-0.8,2-1.9,2l0,0
		c-1,0-1.9-0.899-1.9-2V29v-0.1c0-0.5,0.2-0.9,0.5-1.2C3.1,27.2,3.6,26.9,4.1,26.9 M22.4,56c5,0,9-4,9-9s-4-9-9-9s-9,4-9,9
		S17.4,56,22.4,56 M4.1,24.9c-1.1,0-2.1,0.5-2.9,1.3c-0.7,0.7-1,1.6-1,2.6c0,0.1,0,0.2,0,0.2v12.2c0,2.2,1.7,4,3.9,4
		c0.5,0,0.9-0.101,1.4-0.3C5.4,45.6,5.4,46.3,5.4,47c0,9.4,7.6,17,17,17s17-7.6,17-17s-7.601-17-17-17c-0.7,0-1.4,0-2.1,0.1
		c0.2-0.4,0.2-0.9,0.2-1.3c0-2.1-1.8-3.9-4-3.9H4.3C4.3,24.9,4.2,24.9,4.1,24.9L4.1,24.9z M22.4,54c-3.9,0-7-3.1-7-7s3.1-7,7-7
		s7,3.1,7,7S26.2,54,22.4,54L22.4,54z"/>
</g>
</svg>
