<?xml version="1.0" encoding="utf-8"?>
<!-- Generator: Adobe Illustrator 15.0.0, SVG Export Plug-In  -->
<!DOCTYPE svg PUBLIC "-//W3C//DTD SVG 1.1//EN" "http://www.w3.org/Graphics/SVG/1.1/DTD/svg11.dtd" [
	<!ENTITY ns_flows "http://ns.adobe.com/Flows/1.0/">
]>
<svg version="1.1"
	 xmlns="http://www.w3.org/2000/svg" xmlns:xlink="http://www.w3.org/1999/xlink" xmlns:a="http://ns.adobe.com/AdobeSVGViewerExtensions/3.0/"
	 x="0px" y="0px" width="49px" height="48px" viewBox="1 0.5 49 48" enable-background="new 1 0.5 49 48" xml:space="preserve">
<defs>
</defs>
<path fill="#999999" d="M17,15H32c0.8,0,1.5-0.7,1.5-1.5c0-0.8-0.7-1.5-1.5-1.5H17c-0.8,0-1.5,0.7-1.5,1.5C15.5,14.3,16.2,15,17,15z
	 M32,22H17c-0.8,0-1.5,0.7-1.5,1.5c0,0.8,0.7,1.5,1.5,1.5H32c0.8,0,1.5-0.7,1.5-1.5C33.5,22.7,32.8,22,32,22z M32,33H17
	c-0.8,0-1.5,0.7-1.5,1.5c0,0.8,0.7,1.5,1.5,1.5H32c0.8,0,1.5-0.7,1.5-1.5C33.5,33.7,32.8,33,32,33z"/>
<rect id="_x3C_切片_x3E__58_" fill="none" width="48" height="48"/>
</svg>
