<?xml version="1.0" encoding="utf-8"?>
<!-- Generator: Adobe Illustrator 15.0.0, SVG Export Plug-In  -->
<!DOCTYPE svg PUBLIC "-//W3C//DTD SVG 1.1//EN" "http://www.w3.org/Graphics/SVG/1.1/DTD/svg11.dtd" [
	<!ENTITY ns_flows "http://ns.adobe.com/Flows/1.0/">
]>
<svg version="1.1"
	 xmlns="http://www.w3.org/2000/svg" xmlns:xlink="http://www.w3.org/1999/xlink" xmlns:a="http://ns.adobe.com/AdobeSVGViewerExtensions/3.0/"
	 x="0px" y="0px" width="49px" height="48px" viewBox="0 0.5 49 48" enable-background="new 0 0.5 49 48" xml:space="preserve">
<defs>
</defs>
<path fill="#FFFFFF" d="M43.3,11H15.8c-1.2,0-2.3,0.9-2.3,2s1,2,2.3,2h27.5c1.2,0,2.3-0.9,2.3-2S44.5,11,43.3,11z"/>
<path fill="#3BBDE8" d="M45.3,11H17.8c-1.2,0-2.3,0.9-2.3,2s1,2,2.3,2h27.5c1.2,0,2.3-0.9,2.3-2S46.5,11,45.3,11z"/>
<circle fill="#FFFFFF" cx="5.5" cy="13" r="2.1"/>
<circle fill="#3BBDE8" cx="6.9" cy="13" r="2.1"/>
<path fill="#FFFFFF" d="M43.3,23H15.8c-1.2,0-2.3,0.9-2.3,2s1,2,2.3,2h27.5c1.2,0,2.3-0.9,2.3-2S44.5,23,43.3,23z"/>
<path fill="#3BBDE8" d="M45.3,23H17.8c-1.2,0-2.3,0.9-2.3,2s1,2,2.3,2h27.5c1.2,0,2.3-0.9,2.3-2S46.5,23,45.3,23z"/>
<circle fill="#FFFFFF" cx="5.5" cy="25" r="2.1"/>
<circle fill="#3BBDE8" cx="6.9" cy="25" r="2.1"/>
<path fill="#FFFFFF" d="M43.3,35H15.8c-1.2,0-2.3,0.9-2.3,2s1,2,2.3,2h27.5c1.2,0,2.3-0.9,2.3-2S44.5,35,43.3,35z"/>
<path fill="#3BBDE8" d="M45.3,35H17.8c-1.2,0-2.3,0.9-2.3,2s1,2,2.3,2h27.5c1.2,0,2.3-0.9,2.3-2S46.5,35,45.3,35z"/>
<circle fill="#FFFFFF" cx="5.5" cy="37" r="2.1"/>
<circle fill="#3BBDE8" cx="6.9" cy="37" r="2.1"/>
<path fill="#222222" d="M43.3,35c1.2,0,2.3,0.9,2.3,2s-1,2-2.3,2H15.8c-1.2,0-2.3-0.9-2.3-2s1-2,2.3-2H43.3 M43.3,33H15.8
	c-2.3,0-4.3,1.8-4.3,4s1.9,4,4.3,4h27.5c2.3,0,4.3-1.8,4.3-4S45.6,33,43.3,33L43.3,33z"/>
<path fill="#222222" d="M43.3,23c1.2,0,2.3,0.9,2.3,2s-1,2-2.3,2H15.8c-1.2,0-2.3-0.9-2.3-2s1-2,2.3-2H43.3 M43.3,21H15.8
	c-2.3,0-4.3,1.8-4.3,4s1.9,4,4.3,4h27.5c2.3,0,4.3-1.8,4.3-4S45.6,21,43.3,21L43.3,21z"/>
<path fill="#222222" d="M43.3,11c1.2,0,2.3,0.9,2.3,2s-1,2-2.3,2H15.8c-1.2,0-2.3-0.9-2.3-2s1-2,2.3-2H43.3 M43.3,9H15.8
	c-2.3,0-4.3,1.8-4.3,4s1.9,4,4.3,4h27.5c2.3,0,4.3-1.8,4.3-4S45.6,9,43.3,9L43.3,9z"/>
<path fill="#222222" d="M5.5,34.9c1.1,0,2.1,0.9,2.1,2.1s-0.9,2.1-2.1,2.1S3.4,38.1,3.4,37S4.4,34.9,5.5,34.9 M5.5,32.9
	c-2.2,0-4.1,1.8-4.1,4.1s1.8,4.1,4.1,4.1s4.1-1.8,4.1-4.1S7.7,32.9,5.5,32.9L5.5,32.9z"/>
<path fill="#222222" d="M5.5,22.9c1.1,0,2.1,0.9,2.1,2.1s-0.9,2.1-2.1,2.1S3.4,26.1,3.4,25S4.4,22.9,5.5,22.9 M5.5,20.9
	c-2.2,0-4.1,1.8-4.1,4.1s1.8,4.1,4.1,4.1s4.1-1.8,4.1-4.1S7.7,20.9,5.5,20.9L5.5,20.9z"/>
<path fill="#222222" d="M5.5,10.9c1.1,0,2.1,0.9,2.1,2.1s-0.9,2.1-2.1,2.1S3.4,14.1,3.4,13S4.4,10.9,5.5,10.9 M5.5,8.9
	c-2.2,0-4.1,1.8-4.1,4.1s1.8,4.1,4.1,4.1s4.1-1.8,4.1-4.1S7.7,8.9,5.5,8.9L5.5,8.9z"/>
<rect id="_x3C_切片_x3E__58_" fill="none" width="48" height="48"/>
</svg>
