<?xml version="1.0" encoding="utf-8"?>
<!-- Generator: Adobe Illustrator 15.0.0, SVG Export Plug-In  -->
<!DOCTYPE svg PUBLIC "-//W3C//DTD SVG 1.1//EN" "http://www.w3.org/Graphics/SVG/1.1/DTD/svg11.dtd" [
	<!ENTITY ns_flows "http://ns.adobe.com/Flows/1.0/">
]>
<svg version="1.1"
	 xmlns="http://www.w3.org/2000/svg" xmlns:xlink="http://www.w3.org/1999/xlink" xmlns:a="http://ns.adobe.com/AdobeSVGViewerExtensions/3.0/"
	 x="0px" y="0px" width="49px" height="48px" viewBox="0.9 0.5 49 48" enable-background="new 0.9 0.5 49 48" xml:space="preserve">
<defs>
</defs>
<path fill="#FFFFFF" d="M43.5,22h-38c-1.7,0-3,1.3-3,3s1.3,3,3,3h38c1.7,0,3-1.3,3-3S45.2,22,43.5,22z"/>
<path fill="#7DCC5E" d="M45.5,22h-38c-1.7,0-3,1.3-3,3s1.3,3,3,3h38c1.7,0,3-1.3,3-3S47.2,22,45.5,22z"/>
<path fill="#222222" d="M43.5,22c1.7,0,3,1.3,3,3s-1.3,3-3,3h-38c-1.7,0-3-1.3-3-3s1.3-3,3-3H43.5 M43.5,20h-38c-2.8,0-5,2.2-5,5
	s2.2,5,5,5h38c2.8,0,5-2.2,5-5S46.3,20,43.5,20L43.5,20z"/>
<ellipse fill="#FFFFFF" cx="22.9" cy="24.5" rx="12.6" ry="12.5"/>
<ellipse fill="#7DCC5E" cx="25.9" cy="24.5" rx="12.6" ry="12.5"/>
<path fill="none" stroke="#222222" stroke-width="2" stroke-linecap="round" stroke-linejoin="round" stroke-miterlimit="10" d="
	M27,12.6c0.6,0.2,1.2,0.4,1.7,0.7 M31.8,15.4c2.5,2.3,4,5.5,4,9.1c0,6.9-5.7,12.5-12.7,12.5c-3.4,0-6.5-1.3-8.7-3.4 M12.4,31
	c-1.2-1.9-1.9-4.1-1.9-6.5c0-6.7,5.3-12.1,12-12.4"/>
<rect id="_x3C_切片_x3E__58_" fill="none" width="48" height="48"/>
</svg>
