<?xml version="1.0" encoding="utf-8"?>
<!-- Generator: Adobe Illustrator 15.0.0, SVG Export Plug-In  -->
<!DOCTYPE svg PUBLIC "-//W3C//DTD SVG 1.1//EN" "http://www.w3.org/Graphics/SVG/1.1/DTD/svg11.dtd" [
	<!ENTITY ns_flows "http://ns.adobe.com/Flows/1.0/">
]>
<svg version="1.1"
	 xmlns="http://www.w3.org/2000/svg" xmlns:xlink="http://www.w3.org/1999/xlink" xmlns:a="http://ns.adobe.com/AdobeSVGViewerExtensions/3.0/"
	 x="0px" y="0px" width="37px" height="37px" viewBox="0.5 0 37 37" enable-background="new 0.5 0 37 37" xml:space="preserve">
<defs>
</defs>
<rect id="_x3C_切片_x3E__58_" fill="none" width="36" height="36"/>
<g id="形状_18_6_">
	<g>
		<path fill-rule="evenodd" clip-rule="evenodd" fill="#FFFFFF" d="M29.1,20.1c1.1-1.5,1.8-3.3,1.8-5.2c0-5.2-4.8-9.4-10.8-9.4
			S9.3,9.7,9.3,14.9c0,5.2,4.8,9.4,10.8,9.4c1.8,0,3.5-0.4,5-1.1L25,23.3c3.6,2.8,7.9,0,7.9,0C30.3,22.6,29.4,21,29.1,20.1z"/>
	</g>
</g>
<g id="形状_18_5_">
	<g>
		<path fill-rule="evenodd" clip-rule="evenodd" fill="#FFDD1F" d="M32.1,20.1c1.1-1.5,1.8-3.3,1.8-5.2c0-5.2-4.8-9.4-10.8-9.4
			s-10.8,4.2-10.8,9.4c0,5.2,4.8,9.4,10.8,9.4c1.8,0,3.5-0.4,5-1.1L28,23.3c3.6,2.8,7.9,0,7.9,0C33.3,22.6,32.4,21,32.1,20.1z"/>
	</g>
</g>
<path fill-rule="evenodd" clip-rule="evenodd" fill="none" stroke="#222222" stroke-width="2" stroke-linecap="round" stroke-linejoin="round" stroke-miterlimit="10" d="
	M23.9,5.6c0.7,0.2,1.4,0.5,2,0.8 M29.1,8.9c1.3,1.6,2.1,3.5,2.1,5.6c0,1.9-0.7,3.7-1.8,5.2c0.3,0.9,1.2,2.5,3.8,3.2
	c0,0-4.3,2.8-7.9,0l0.1-0.1c-1.5,0.7-3.2,1.1-5,1.1c-6,0-10.8-4.2-10.8-9.4c0-4.9,4.3-8.9,9.8-9.3"/>
<g id="椭圆_11_副本_3_">
	<g>
		<circle fill-rule="evenodd" clip-rule="evenodd" fill="#222222" cx="23.6" cy="14.9" r="1.5"/>
	</g>
</g>
<g id="形状_18_副本_2_8_">
	<g>
		<path fill-rule="evenodd" clip-rule="evenodd" fill="#FFFFFF" d="M20.4,28c1.1-1.5,1.7-3.2,1.7-5.1c0-5.1-4.7-9.2-10.4-9.2
			S1.3,17.8,1.3,22.9c0,5.1,4.7,9.2,10.4,9.2c1.7,0,3.4-0.4,4.8-1l-0.1,0.1c3.5,2.7,7.6,0,7.6,0C21.6,30.4,20.7,28.9,20.4,28z"/>
	</g>
</g>
<g id="形状_18_副本_2_7_">
	<g>
		<path fill-rule="evenodd" clip-rule="evenodd" fill="#3BBDE8" d="M23.4,28c1.1-1.5,1.7-3.2,1.7-5.1c0-5.1-4.7-9.2-10.4-9.2
			S4.3,17.8,4.3,22.9c0,5.1,4.7,9.2,10.4,9.2c1.8,0,3.4-0.4,4.9-1.1l-1,1.1c3.5,2.7,8.5-1,8.5-1C24.6,30.4,23.7,28.9,23.4,28z"/>
	</g>
</g>
<g id="椭圆_11_3_">
	<g>
		<path fill-rule="evenodd" clip-rule="evenodd" fill="#222222" d="M8.9,21.6c-0.8,0-1.5,0.7-1.5,1.5s0.7,1.5,1.5,1.5
			s1.5-0.7,1.5-1.5S9.8,21.6,8.9,21.6z M14.9,21.6c-0.8,0-1.5,0.7-1.5,1.5s0.7,1.5,1.5,1.5s1.5-0.7,1.5-1.5S15.8,21.6,14.9,21.6z"/>
	</g>
</g>
<path fill-rule="evenodd" clip-rule="evenodd" fill="none" stroke="#222222" stroke-width="2" stroke-linecap="round" stroke-linejoin="round" stroke-miterlimit="10" d="
	M15.5,14.2c0.7,0.2,1.3,0.5,1.9,0.8 M20.5,17.4c1.3,1.5,2,3.4,2,5.5c0,1.9-0.6,3.6-1.7,5.1c0.3,0.9,1.2,2.5,3.6,3.1
	c0,0-4.1,2.7-7.6,0l0.1-0.1c-1.4,0.7-3.1,1-4.8,1c-2.6,0-5-0.8-6.8-2.2 M3,27.2c-0.8-1.3-1.2-2.7-1.2-4.3c0-4.8,4.1-8.7,9.4-9.1"/>
</svg>
