<?xml version="1.0" encoding="utf-8"?>
<!-- Generator: Adobe Illustrator 15.0.0, SVG Export Plug-In  -->
<!DOCTYPE svg PUBLIC "-//W3C//DTD SVG 1.1//EN" "http://www.w3.org/Graphics/SVG/1.1/DTD/svg11.dtd" [
	<!ENTITY ns_flows "http://ns.adobe.com/Flows/1.0/">
]>
<svg version="1.1"
	 xmlns="http://www.w3.org/2000/svg" xmlns:xlink="http://www.w3.org/1999/xlink" xmlns:a="http://ns.adobe.com/AdobeSVGViewerExtensions/3.0/"
	 x="0px" y="0px" width="65px" height="65px" viewBox="0 0 65 65" enable-background="new 0 0 65 65" xml:space="preserve">
<defs>
</defs>
<rect id="_x3C_切片_x3E__59_" fill="none" width="64" height="64"/>
<path fill-rule="evenodd" clip-rule="evenodd" fill="#FFFFFF" d="M9.8,5.8h42.2c1.9,0,3.4,1.5,3.4,3.4v44.2c0,1.9-1.5,3.4-3.4,3.4
	H9.8c-1.9,0-3.4-1.5-3.4-3.4V9.2C6.4,7.4,8,5.8,9.8,5.8z"/>
<path fill-rule="evenodd" clip-rule="evenodd" fill="#FFDD1F" d="M12.8,6.8h42.2c1.9,0,3.4,1.5,3.4,3.4v44.2c0,1.9-1.5,3.4-3.4,3.4
	H12.8c-1.9,0-3.4-1.5-3.4-3.4V10.2C9.4,8.4,11,6.8,12.8,6.8z"/>
<path fill-rule="evenodd" clip-rule="evenodd" fill="none" stroke="#222222" stroke-width="2" stroke-linecap="round" stroke-linejoin="round" stroke-miterlimit="10" d="
	M41.1,57.8H9.9c-1.9,0-3.4-1.5-3.4-3.4V28.9 M6.5,22.1v-2.4 M6.5,13.6v-3.4c0-1.9,1.5-3.4,3.4-3.4h42.3c1.9,0,3.4,1.5,3.4,3.4v44.2
	c0,1.9-1.5,3.4-3.4,3.4h-5.8"/>
<g>
	<g>
		<path fill="#222222" d="M12.3,51.8h17v-3h-17V51.8z M12.3,34.8h17v-3h-17V34.8z M12.3,42.8h17v-3h-17V42.8z M17.4,12.8h-5.1v5h5.1
			V12.8z M26.3,12.8h-5v5h5V12.8z M30.2,12.8v5h5.1v-5H30.2z"/>
	</g>
</g>
<path fill-rule="evenodd" clip-rule="evenodd" fill="#FF3300" d="M12.3,21.3h39v5h-39V21.3z"/>
<path fill-rule="evenodd" clip-rule="evenodd" fill="#FFFFFF" stroke="#222222" stroke-width="2" stroke-linecap="round" stroke-linejoin="round" stroke-miterlimit="10" d="
	M36,32.3h11.5c1.8,0,3.3,1.5,3.3,3.3V48c0,2.6-3.1,3.3-4.9,3.3h-8.2c-1.8,0-4.9-0.5-4.9-3.3V35.7C32.8,33.8,33.5,32.3,36,32.3z"/>
</svg>
