<?xml version="1.0" encoding="utf-8"?>
<!-- Generator: Adobe Illustrator 15.0.0, SVG Export Plug-In  -->
<!DOCTYPE svg PUBLIC "-//W3C//DTD SVG 1.1//EN" "http://www.w3.org/Graphics/SVG/1.1/DTD/svg11.dtd" [
	<!ENTITY ns_flows "http://ns.adobe.com/Flows/1.0/">
]>
<svg version="1.1"
	 xmlns="http://www.w3.org/2000/svg" xmlns:xlink="http://www.w3.org/1999/xlink" xmlns:a="http://ns.adobe.com/AdobeSVGViewerExtensions/3.0/"
	 x="0px" y="0px" width="49px" height="48px" viewBox="1 0.5 49 48" enable-background="new 1 0.5 49 48" xml:space="preserve">
<defs>
</defs>
<path fill="#FFFFFF" d="M27.9,10h-9.8C9.5,10,2.5,16.9,2.5,25.5c0,8.6,7,15.5,15.6,15.5h9.8c8.6,0,15.6-6.9,15.6-15.5
	C43.5,16.9,36.5,10,27.9,10z"/>
<path fill="#FFFFFF" d="M27.9,10h-9.8C9.5,10,2.5,16.9,2.5,25.5c0,8.6,7,15.5,15.6,15.5h9.8c8.6,0,15.6-6.9,15.6-15.5
	C43.5,16.9,36.5,10,27.9,10z"/>
<path fill="#A3DC36" d="M31.9,10h-9.8c-8.6,0-15.6,6.9-15.6,15.5c0,8.6,7,15.5,15.6,15.5h9.8c8.6,0,15.6-6.9,15.6-15.5
	C47.5,16.9,40.5,10,31.9,10z"/>
<path fill="#222222" d="M46,15.7L37.3,8v4.9c-8.1,0-14.6,6.3-15.2,14.4c0,0-0.1,0.5-0.1,0.8c0,0.9,0.7,1.6,1.6,1.6
	c0.9,0,1.6-0.7,1.6-1.6c0-0.3,0.1-0.8,0.1-0.8c0.7-5.9,5.7-10.6,11.9-10.6v5.4L46,15.7z"/>
<path fill="none" stroke="#222222" stroke-width="2" stroke-linecap="round" stroke-linejoin="round" stroke-miterlimit="10" d="
	M43.5,25.5c0,5.1-2.5,9.7-6.4,12.5 M33.7,39.9c-1.8,0.7-3.8,1.1-5.8,1.1 M24.6,41c-2.2,0-6.5,0-6.5,0C9.5,41,2.5,34.1,2.5,25.5
	c0-8.6,7-15.5,15.6-15.5h3.2"/>
<rect id="_x3C_切片_x3E__58_" fill="none" width="48" height="48"/>
</svg>
