<?xml version="1.0" encoding="utf-8"?>
<!-- Generator: Adobe Illustrator 15.0.0, SVG Export Plug-In  -->
<!DOCTYPE svg PUBLIC "-//W3C//DTD SVG 1.1//EN" "http://www.w3.org/Graphics/SVG/1.1/DTD/svg11.dtd" [
	<!ENTITY ns_flows "http://ns.adobe.com/Flows/1.0/">
]>
<svg version="1.1"
	 xmlns="http://www.w3.org/2000/svg" xmlns:xlink="http://www.w3.org/1999/xlink" xmlns:a="http://ns.adobe.com/AdobeSVGViewerExtensions/3.0/"
	 x="0px" y="0px" width="49px" height="48px" viewBox="0 0.5 49 48" enable-background="new 0 0.5 49 48" xml:space="preserve">
<defs>
</defs>
<rect id="_x3C_切片_x3E__58_" fill="none" width="48" height="48"/>
<g id="圆角矩形_3_副本_2_10_">
	<g>
		<path fill-rule="evenodd" clip-rule="evenodd" fill="#FFFFFF" d="M40.1,12H6.5c-1.5,0-2.7,1.2-2.7,2.7v24.5C3.8,40.8,5,42,6.5,42
			h33.6c1.5,0,2.7-1.2,2.7-2.7V14.7C42.8,13.2,41.6,12,40.1,12z"/>
	</g>
</g>
<g id="圆角矩形_3_12_">
	<g>
		<path fill-rule="evenodd" clip-rule="evenodd" fill="#FF9900" d="M43.1,12H9.5c-1.5,0-2.7,1.2-2.7,2.7v24.5C6.8,40.8,8,42,9.5,42
			h33.6c1.5,0,2.7-1.2,2.7-2.7V14.7C45.8,13.2,44.6,12,43.1,12z"/>
	</g>
</g>
<path fill-rule="evenodd" clip-rule="evenodd" fill="none" stroke="#222222" stroke-width="2" stroke-linecap="round" stroke-linejoin="round" stroke-miterlimit="10" d="
	M31.3,42H6.5c-1.5,0-2.7-1.2-2.7-2.7v-9.5 M3.8,24.3v-1.9 M3.8,17.5v-2.7C3.8,13.2,5,12,6.5,12h33.6c1.5,0,2.7,1.2,2.7,2.7v24.5
	c0,1.5-1.2,2.7-2.7,2.7h-4.7"/>
<g id="圆角矩形_4_副本_2_8_">
	<g>
		<path fill-rule="evenodd" clip-rule="evenodd" fill="#FFFFFF" d="M30.2,7H16.4c-3.1,0-4.1,2.3-4.1,3.6v3.6c0,3.7,5.4,4.8,6.9,4.8
			h8.3c1.5,0,6.9-1.2,6.9-4.8v-3.6C34.3,9.3,33.3,7,30.2,7z"/>
	</g>
</g>
<g id="圆角矩形_4_7_">
	<g>
		<path fill-rule="evenodd" clip-rule="evenodd" fill="#FFDD1F" d="M34.2,7H20.4c-3.1,0-4.1,2.3-4.1,3.6v3.6c0,3.7,5.4,4.8,6.9,4.8
			h8.3c1.5,0,6.9-1.2,6.9-4.8v-3.6C38.3,9.3,37.3,7,34.2,7z"/>
	</g>
</g>
<g id="矩形_28_3_">
	<g>
		
			<rect x="16.8" y="28" transform="matrix(0.7069 -0.7074 0.7074 0.7069 -18.1247 22.2634)" fill-rule="evenodd" clip-rule="evenodd" fill="#222222" width="2" height="10"/>
	</g>
</g>
<g id="矩形_28_2_">
	<g>
		
			<rect x="17.8" y="28" transform="matrix(0.7071 -0.7071 0.7071 0.7071 -12.364 28.1506)" fill-rule="evenodd" clip-rule="evenodd" fill="#222222" width="20" height="2"/>
	</g>
</g>
<path fill-rule="evenodd" clip-rule="evenodd" fill="none" stroke="#222222" stroke-width="2" stroke-linecap="round" stroke-linejoin="round" stroke-miterlimit="10" d="
	M21.9,7h1.4 M27.4,7h2.8c3.1,0,4.1,2.3,4.1,3.6v3.6c0,3.6-5.4,4.8-6.9,4.8h-8.3c-1.5,0-6.9-1.1-6.9-4.8v-3.6c0-1.3,1-3.6,4.1-3.6
	h1.4"/>
</svg>
