<?xml version="1.0" encoding="utf-8"?>
<!-- Generator: Adobe Illustrator 15.0.0, SVG Export Plug-In  -->
<!DOCTYPE svg PUBLIC "-//W3C//DTD SVG 1.1//EN" "http://www.w3.org/Graphics/SVG/1.1/DTD/svg11.dtd" [
	<!ENTITY ns_flows "http://ns.adobe.com/Flows/1.0/">
]>
<svg version="1.1"
	 xmlns="http://www.w3.org/2000/svg" xmlns:xlink="http://www.w3.org/1999/xlink" xmlns:a="http://ns.adobe.com/AdobeSVGViewerExtensions/3.0/"
	 x="0px" y="0px" width="49px" height="48px" viewBox="0.9 0.5 49 48" enable-background="new 0.9 0.5 49 48" xml:space="preserve">
<defs>
</defs>
<rect id="_x3C_切片_x3E__60_" fill="none" width="48" height="48"/>
<polygon fill="#FFFFFF" points="44.7,19.6 31,17 24.3,4.9 17.6,17 3.9,19.6 13.4,29.7 11.7,43.5 24.3,37.6 36.9,43.5 35.2,29.7 "/>
<path fill="none" stroke="#222222" stroke-width="2" stroke-linecap="round" stroke-linejoin="round" stroke-miterlimit="10" d="
	M24.4,4.6l6.8,12.3l13.9,2.6l-9.6,10.2 M36.1,34.8l1.1,8.8l-12.8-6l-12.8,6l1.8-13.9L3.7,19.5 M8.6,18.6c1.3-0.2,2.6-0.5,2.6-0.5
	 M15.8,17.2c1-0.2,1.8-0.4,1.8-0.4l6.8-12.3"/>
</svg>
