<?xml version="1.0" encoding="utf-8"?>
<!-- Generator: Adobe Illustrator 15.0.0, SVG Export Plug-In  -->
<!DOCTYPE svg PUBLIC "-//W3C//DTD SVG 1.1//EN" "http://www.w3.org/Graphics/SVG/1.1/DTD/svg11.dtd" [
	<!ENTITY ns_flows "http://ns.adobe.com/Flows/1.0/">
]>
<svg version="1.1"
	 xmlns="http://www.w3.org/2000/svg" xmlns:xlink="http://www.w3.org/1999/xlink" xmlns:a="http://ns.adobe.com/AdobeSVGViewerExtensions/3.0/"
	 x="0px" y="0px" width="48px" height="48px" viewBox="1 0.5 48 48" enable-background="new 1 0.5 48 48" xml:space="preserve">
<defs>
</defs>
<polygon fill="#FFFFFF" points="44.8,19.6 31.1,17 24.4,4.9 17.7,17 4,19.6 13.5,29.7 11.8,43.5 24.4,37.6 37,43.5 35.3,29.7 "/>
<polygon fill="#FFDE00" points="47.2,19.9 34.1,17.4 27.7,5.9 21.3,17.4 8.3,19.9 17.3,29.5 15.7,42.6 27.7,37 39.8,42.6 38.1,29.5 
	"/>
<path fill="none" stroke="#222222" stroke-width="2" stroke-linecap="round" stroke-linejoin="round" stroke-miterlimit="10" d="
	M24.5,4.6l6.8,12.3l13.9,2.6l-9.6,10.2 M36.2,34.8l1.1,8.8l-12.8-6l-12.8,6l1.8-13.9L3.8,19.5 M8.7,18.6c1.3-0.2,2.6-0.5,2.6-0.5
	 M15.9,17.2c1-0.2,1.8-0.4,1.8-0.4l6.8-12.3"/>
<rect id="_x3C_切片_x3E__58_" fill="none" width="48" height="48"/>
</svg>
