<?xml version="1.0" encoding="utf-8"?>
<!-- Generator: Adobe Illustrator 15.0.0, SVG Export Plug-In  -->
<!DOCTYPE svg PUBLIC "-//W3C//DTD SVG 1.1//EN" "http://www.w3.org/Graphics/SVG/1.1/DTD/svg11.dtd" [
	<!ENTITY ns_flows "http://ns.adobe.com/Flows/1.0/">
]>
<svg version="1.1"
	 xmlns="http://www.w3.org/2000/svg" xmlns:xlink="http://www.w3.org/1999/xlink" xmlns:a="http://ns.adobe.com/AdobeSVGViewerExtensions/3.0/"
	 x="0px" y="0px" width="97px" height="97px" viewBox="0.531 -0.002 97 97" enable-background="new 0.531 -0.002 97 97"
	 xml:space="preserve">
<defs>
</defs>
<rect id="_x3C_切片_x3E__58_" fill-rule="evenodd" clip-rule="evenodd" fill="none" width="96" height="96"/>
<g id="圆角矩形_3_14_">
	<g>
		<path fill-rule="evenodd" clip-rule="evenodd" fill="#FFFFFF" d="M85.038,2.492H11.045c-4.538,0-8.5,4.001-8.5,8.586v72.834
			c0,4.585,3.212,8.587,8.5,8.587h73.993c4.037,0,8.499-4.251,8.499-8.587V11.078C93.537,6.743,89.825,2.492,85.038,2.492z"/>
	</g>
</g>
<g id="圆角矩形_3_副本_2_10_">
	<g>
		<path fill-rule="evenodd" clip-rule="evenodd" fill="#FFFFFF" d="M82.023,7.489H13.056c-3.048,0-5.518,2.499-5.518,5.58v69.85
			c0,3.081,2.47,5.58,5.518,5.58h68.968c3.048,0,5.519-2.499,5.519-5.58v-69.85C87.542,9.988,85.071,7.489,82.023,7.489z"/>
	</g>
</g>
<g id="圆角矩形_3_12_">
	<g>
		<path fill-rule="evenodd" clip-rule="evenodd" fill="#FFDD1F" d="M84.038,7.492H19.045c-3.037,0-5.5,2.501-5.5,5.586v68.834
			c0,3.085,2.463,5.587,5.5,5.587h64.993c3.037,0,5.499-2.502,5.499-5.587V13.078C89.537,9.993,87.075,7.492,84.038,7.492z"/>
	</g>
</g>
<g>
	<path fill-rule="evenodd" clip-rule="evenodd" fill="#FFFFFF" d="M50.968,68.712l25.681-31.304c0,0,4.342-6.522,11.605-0.03
		c7.099,6.344,2.186,11.846,2.186,11.846L62.76,78.527l-14.22,4.971L50.968,68.712z"/>
</g>
<g id="矩形_27_2_">
	<g>
		<path fill-rule="evenodd" clip-rule="evenodd" fill="#3BBDE8" d="M90.969,40.56c-5.428-6.035-10.958,0.265-10.958,0.265
			L54.688,70.938l-1.656,9.561l10.914-2.049l26.68-28.304C90.625,50.146,94.371,44.342,90.969,40.56z"/>
	</g>
</g>
<text transform="matrix(1 0 0 1 14.5313 34.4043)" fill="#222222" font-family="'MicrosoftYaHei-Bold'" font-size="20">发话题</text>
<path fill-rule="evenodd" clip-rule="evenodd" fill="none" stroke="#222222" stroke-width="4" stroke-linecap="round" stroke-linejoin="round" stroke-miterlimit="10" d="
	M58.783,87.501l-45.746-0.002c-3.037,0-5.499-2.501-5.499-5.586l0.009-40.856 M7.538,32.632v-5.585 M7.538,18.665v-5.587
	c0-3.085,2.462-5.586,5.499-5.586h64.994c3.037,0,5.499,2.501,5.499,5.586l0.001,16.581 M83.53,63.812v18.102
	c0,3.085-2.462,5.586-5.499,5.586l-10.999,0.002"/>
<g>
	<path fill="#222222" d="M82.033,37.5L82.033,37.5c1.214,0,2.674,0.731,4.222,2.115c4.38,3.914,2.601,6.814,1.958,7.597
		L61.08,75.937l-8.761,3.063l1.479-9.007l25.17-30.682c0.063-0.076,0.1-0.123,0.154-0.205C79.169,39.039,80.281,37.5,82.033,37.5
		 M82.033,34.5c-3.449,0.001-5.385,2.908-5.385,2.908L50.968,68.712L48.54,83.498l14.22-4.971l27.68-29.304
		c0,0,4.913-5.502-2.186-11.846C85.84,35.221,83.749,34.5,82.033,34.5L82.033,34.5z"/>
</g>
<line fill="none" stroke="#222222" stroke-width="3" stroke-linecap="round" stroke-linejoin="round" stroke-miterlimit="10" x1="53.924" y1="70.498" x2="60.865" y2="76.507"/>
<line fill="none" stroke="#222222" stroke-width="4" stroke-linecap="round" stroke-linejoin="round" stroke-miterlimit="10" x1="18.531" y1="48.732" x2="52.536" y2="48.732"/>
<line fill="none" stroke="#222222" stroke-width="4" stroke-linecap="round" stroke-linejoin="round" stroke-miterlimit="10" x1="18.531" y1="61.832" x2="42.536" y2="61.832"/>
<line fill="none" stroke="#222222" stroke-width="4" stroke-linecap="round" stroke-linejoin="round" stroke-miterlimit="10" x1="18.531" y1="74.832" x2="37.536" y2="74.832"/>
</svg>
