<?xml version="1.0" encoding="utf-8"?>
<!-- Generator: Adobe Illustrator 15.0.0, SVG Export Plug-In  -->
<!DOCTYPE svg PUBLIC "-//W3C//DTD SVG 1.1//EN" "http://www.w3.org/Graphics/SVG/1.1/DTD/svg11.dtd" [
	<!ENTITY ns_flows "http://ns.adobe.com/Flows/1.0/">
]>
<svg version="1.1"
	 xmlns="http://www.w3.org/2000/svg" xmlns:xlink="http://www.w3.org/1999/xlink" xmlns:a="http://ns.adobe.com/AdobeSVGViewerExtensions/3.0/"
	 x="0px" y="0px" width="45px" height="44px" viewBox="0.5 0.5 45 44" enable-background="new 0.5 0.5 45 44" xml:space="preserve">
<defs>
</defs>
<rect id="_x3C_切片_x3E__58_" fill-rule="evenodd" clip-rule="evenodd" fill="none" width="44" height="44"/>
<g id="椭圆_17_副本_4_3_">
	<g>
		<circle fill-rule="evenodd" clip-rule="evenodd" fill="#FFFFFF" cx="22" cy="22.5" r="19"/>
	</g>
</g>
<g id="形状_2_1_">
	<g>
		<path fill-rule="evenodd" clip-rule="evenodd" fill="#FFDE00" d="M25,14.5c-2.6,0.9-11,6.6-8,15c2.2,6.3,14.2,0.9,14-8
			C31,21.5,31.8,12.1,25,14.5z"/>
	</g>
</g>
<path fill-rule="evenodd" clip-rule="evenodd" fill="none" stroke="#222222" stroke-width="2" stroke-linecap="round" stroke-linejoin="round" stroke-miterlimit="10" d="
	M8.2,10.4c0.7-0.9,1.5-1.6,2.4-2.4 M14,5.8C16.4,4.7,19.1,4,22,4c9.9,0,18,8.1,18,18 M34.3,35.2c-3.2,3-7.5,4.8-12.3,4.8
	c-9.9,0-18-8.1-18-18c0-2.7,0.6-5.2,1.6-7.5"/>
<path fill-rule="evenodd" clip-rule="evenodd" fill="none" stroke="#222222" stroke-width="2" stroke-linecap="round" stroke-linejoin="round" stroke-miterlimit="10" d="
	M28.3,19.6c0,0,1.1-5.2-2.7-6c-3.8-0.8-9.1,1.7-11.1,6.2c-3.4,7.8,0.1,11.5,2.9,11.7c8,0.5,9.8-5.8,10.9-9.9c0,0-2.3,8.9,4,9.9
	c3.6,0.6,7.7-2.3,7.9-9.9"/>
</svg>
