<?xml version="1.0" encoding="utf-8"?>
<!-- Generator: Adobe Illustrator 15.0.0, SVG Export Plug-In  -->
<!DOCTYPE svg PUBLIC "-//W3C//DTD SVG 1.1//EN" "http://www.w3.org/Graphics/SVG/1.1/DTD/svg11.dtd" [
	<!ENTITY ns_flows "http://ns.adobe.com/Flows/1.0/">
]>
<svg version="1.1"
	 xmlns="http://www.w3.org/2000/svg" xmlns:xlink="http://www.w3.org/1999/xlink" xmlns:a="http://ns.adobe.com/AdobeSVGViewerExtensions/3.0/"
	 x="0px" y="0px" width="45px" height="44px" viewBox="0.5 0.5 45 44" enable-background="new 0.5 0.5 45 44" xml:space="preserve">
<defs>
</defs>
<rect id="_x3C_切片_x3E__58_" fill-rule="evenodd" clip-rule="evenodd" fill="none" width="44" height="44"/>
<g id="圆角矩形_3_副本_2_10_">
	<g>
		<path fill-rule="evenodd" clip-rule="evenodd" fill="#FFFFFF" d="M37,6H7c-2.8,0-5,2.2-5,5v23c0,2.8,2.2,5,5,5h30c2.8,0,5-2.2,5-5
			V11C42,8.2,39.8,6,37,6z"/>
	</g>
</g>
<g id="椭圆_19_1_">
	<g>
		<path fill-rule="evenodd" clip-rule="evenodd" fill="#FFDE00" d="M17,19c1.7,0,3-1.3,3-3s-1.3-3-3-3s-3,1.3-3,3S15.3,19,17,19z
			 M31.8,21c-3.8,0-6.8,7-9.7,7C19,28,11,23.3,11,23.3s0,4,0,6.4s2.6,2.3,2.6,2.3s18.2,0,20.8,0s2.6-2.3,2.6-2.3v-6.4
			C37,23.3,35.9,21,31.8,21z"/>
	</g>
</g>
<path fill-rule="evenodd" clip-rule="evenodd" fill="none" stroke="#222222" stroke-width="2" stroke-linecap="round" stroke-linejoin="round" stroke-miterlimit="10" d="
	M37.2,7c2.2,0,4,1.8,4,4v23c0,2.2-1.8,4-4,4h-23 M10.2,38h-3c-2.2,0-4-1.8-4-4V11c0-2.2,1.8-4,4-4h18 M29.2,7h4"/>
<g>
	<path fill="#222222" d="M15,13c1.7,0,3,1.3,3,3c0,1.7-1.3,3-3,3c-1.7,0-3-1.3-3-3C12,14.3,13.3,13,15,13 M15,11c-2.8,0-5,2.2-5,5
		s2.2,5,5,5s5-2.2,5-5S17.8,11,15,11L15,11z"/>
</g>
<g>
	<path fill="#222222" d="M30.3,21c4.1,0,5.2,2.3,5.2,2.3v6.4c0,0,0,2.3-2.6,2.3s-20.8,0-20.8,0s-2.6,0-2.6-2.3s0-6.4,0-6.4
		s8,4.6,11.1,4.6C23.5,28,26.5,21,30.3,21 M30.3,19c-2.9,0-5.1,2.4-7,4.5c-0.8,0.9-2.2,2.4-2.7,2.5c-1.7,0-6.9-2.6-10-4.4
		c-0.3-0.2-0.7-0.3-1-0.3c-0.3,0-0.7,0.1-1,0.3c-0.6,0.4-1,1-1,1.7v6.4c0,3.2,2.8,4.3,4.6,4.3h20.8c3.3,0,4.6-2.6,4.6-4.3v-6.4
		c0-0.3-0.1-0.6-0.2-0.8C37.2,22.1,35.6,19,30.3,19L30.3,19z"/>
</g>
</svg>
