<?xml version="1.0" encoding="utf-8"?>
<!-- Generator: Adobe Illustrator 15.0.0, SVG Export Plug-In  -->
<!DOCTYPE svg PUBLIC "-//W3C//DTD SVG 1.1//EN" "http://www.w3.org/Graphics/SVG/1.1/DTD/svg11.dtd" [
	<!ENTITY ns_flows "http://ns.adobe.com/Flows/1.0/">
]>
<svg version="1.1"
	 xmlns="http://www.w3.org/2000/svg" xmlns:xlink="http://www.w3.org/1999/xlink" xmlns:a="http://ns.adobe.com/AdobeSVGViewerExtensions/3.0/"
	 x="0px" y="0px" width="28px" height="29px" viewBox="1 0.2 28 29" enable-background="new 1 0.2 28 29" xml:space="preserve">
<defs>
</defs>
<rect id="_x3C_切片_x3E__58_" x="0" y="0.2" fill-rule="evenodd" clip-rule="evenodd" fill="none" width="28" height="28"/>
<path fill-rule="evenodd" clip-rule="evenodd" fill="#FFFFFF" d="M2.9,14.2H4c0.8,0,1.5,0.7,1.5,1.6v7.8c0,0.9-0.7,1.6-1.5,1.6H2.9
	c-0.8,0-1.5-0.7-1.5-1.6v-7.8C1.4,14.9,2.1,14.2,2.9,14.2z"/>
<path fill-rule="evenodd" clip-rule="evenodd" fill="#FFFFFF" d="M7.3,14.8l0.1,8c0,0-0.8,2.6,2.5,2.6h11c0,0,2.4,0.8,3-3.4l1.2-6.1
	c0,0,0.3-3.1-2.3-3.4l-4.4-0.1c0,0-2.2-1.3-2-3.9V4.6c0,0-0.4-2.7-4-2.4v5.5C12.4,7.7,13.4,12.9,7.3,14.8z"/>
<path fill-rule="evenodd" clip-rule="evenodd" fill="none" stroke="#666666" stroke-width="2" stroke-linecap="round" stroke-linejoin="round" stroke-miterlimit="10" d="
	M10.3,26h-1c-2.9-0.1-3-2.3-3-2.3V14c5.6,0,5-7,5-7V2V1c4-0.3,6,2,6,2v5c0,3.4,2.3,3.8,2.3,3.8H23c3,0.3,3.3,3.5,3.3,3.5L25,22.2
	C24.4,27,21.3,26,21.3,26 M17.3,26h-3"/>
<path fill-rule="evenodd" clip-rule="evenodd" fill="none" stroke="#666666" stroke-width="2" stroke-miterlimit="10" d="M2.8,13.8
	h1.4c1,0,1.8,0.9,1.8,2v8c0,1.1-0.8,2-1.8,2H2.8c-1,0-1.8-0.9-1.8-2v-8C1,14.7,1.8,13.8,2.8,13.8z"/>
</svg>
