<?xml version="1.0" encoding="utf-8"?>
<!-- Generator: Adobe Illustrator 15.0.0, SVG Export Plug-In  -->
<!DOCTYPE svg PUBLIC "-//W3C//DTD SVG 1.1//EN" "http://www.w3.org/Graphics/SVG/1.1/DTD/svg11.dtd" [
	<!ENTITY ns_flows "http://ns.adobe.com/Flows/1.0/">
]>
<svg version="1.1"
	 xmlns="http://www.w3.org/2000/svg" xmlns:xlink="http://www.w3.org/1999/xlink" xmlns:a="http://ns.adobe.com/AdobeSVGViewerExtensions/3.0/"
	 x="0px" y="0px" width="49px" height="48px" viewBox="1 0.5 49 48" enable-background="new 1 0.5 49 48" xml:space="preserve">
<defs>
</defs>
<rect id="_x3C_切片_x3E__58_" fill="none" width="48" height="48"/>
<g id="圆角矩形_4_副本_2_8_">
	<g>
		<path fill-rule="evenodd" clip-rule="evenodd" fill="#FFFFFF" d="M8.7,23H7.3c-1,0-1.8,1-1.8,2.2v16.6C5.5,43,6.3,44,7.3,44h1.4
			c1,0,1.8-1,1.8-2.2V25.2C10.5,24,9.7,23,8.7,23z"/>
	</g>
</g>
<g id="圆角矩形_4_副本_1_">
	<g>
		<path fill-rule="evenodd" clip-rule="evenodd" fill="#3BBDE8" d="M10,24H9c-0.8,0-1.5,1-1.5,2.2v16.6C7.5,44,8.1,45,9,45H10
			c0.8,0,1.5-1,1.5-2.2V26.2C11.5,25,10.9,24,10,24z"/>
	</g>
</g>
<g id="形状_488_副本_4_1_">
	<g>
		<path fill-rule="evenodd" clip-rule="evenodd" fill="#FFFFFF" d="M40.1,20.1L32,19.9c0,0-4-2.4-3.7-6.9V7.3c0,0-0.8-4.7-7.4-4.3
			v8.5c0,0,2.2,8-8.9,11.4l-0.2,15.4c0,0-1.5,4.6,4.7,4.6h20.3c0,0,4.4,1.4,5.6-6L44.5,26C44.5,26,45.1,20.5,40.1,20.1z"/>
	</g>
</g>
<g id="形状_488_副本_3_1_">
	<g>
		<path fill-rule="evenodd" clip-rule="evenodd" fill="#3BBDE8" d="M44.2,22.6h-6.4c0,0-4.8-1.8-4.6-6v-5.3c0,0,0-6.5-9.8-5.2V16
			c0,0,1.7,6.8-8,9.9v13.2c0,0-0.6,4.9,4.8,4.9h17.5c0,0,6.9,0.3,8-6.6l1.6-8.7C47.4,28.8,48.5,23.1,44.2,22.6z"/>
	</g>
</g>
<path fill-rule="evenodd" clip-rule="evenodd" fill="none" stroke="#222222" stroke-width="2" stroke-linecap="round" stroke-linejoin="round" stroke-miterlimit="10" d="
	M18.5,44h-2c-4.3-0.1-5-3.6-5-3.6V23.8c9.4-2.4,9-10.8,9-10.8V6V4c6.1-0.5,9,4,9,4v6c0,8.2,3,8,3,8h5c4.5,0.5,5,5,5,5l-2,10.8
	c-0.9,7.7-6,6.1-6,6.1 M29.5,44h-5"/>
<path fill-rule="evenodd" clip-rule="evenodd" fill="none" stroke="#222222" stroke-width="2" stroke-linecap="round" stroke-linejoin="round" stroke-miterlimit="10" d="
	M7.7,24h1.6c1.2,0,2.2,1.1,2.2,2.6v14.9c0,1.4-1,2.6-2.2,2.6H7.7c-1.2,0-2.2-1.1-2.2-2.6V26.6C5.5,25.2,6.5,24,7.7,24z"/>
</svg>
