<?xml version="1.0" encoding="utf-8"?>
<!-- Generator: Adobe Illustrator 15.0.0, SVG Export Plug-In  -->
<!DOCTYPE svg PUBLIC "-//W3C//DTD SVG 1.1//EN" "http://www.w3.org/Graphics/SVG/1.1/DTD/svg11.dtd" [
	<!ENTITY ns_flows "http://ns.adobe.com/Flows/1.0/">
]>
<svg version="1.1"
	 xmlns="http://www.w3.org/2000/svg" xmlns:xlink="http://www.w3.org/1999/xlink" xmlns:a="http://ns.adobe.com/AdobeSVGViewerExtensions/3.0/"
	 x="0px" y="0px" width="49px" height="48px" viewBox="1 0.5 49 48" enable-background="new 1 0.5 49 48" xml:space="preserve">
<defs>
</defs>
<rect id="_x3C_切片_x3E__58_" fill="none" width="48" height="48"/>
<g id="圆角矩形_3_副本_2_10_">
	<g>
		<path fill-rule="evenodd" clip-rule="evenodd" fill="#FFFFFF" d="M39.2,6h-31C6.8,6,5.7,7.1,5.7,8.5v32.1c0,1.4,1.1,2.5,2.5,2.5
			h31c1.4,0,2.5-1.1,2.5-2.5V8.5C41.7,7.1,40.6,6,39.2,6z"/>
	</g>
</g>
<g id="圆角矩形_3_12_">
	<g>
		<path fill-rule="evenodd" clip-rule="evenodd" fill="#A3DC36" d="M42.9,7.2H13.2c-1.4,0-2.5,1.1-2.5,2.5v30.8
			c0,1.4,1.1,2.5,2.5,2.5h29.8c1.4,0,2.5-1.1,2.5-2.5V9.7C45.4,8.3,44.3,7.2,42.9,7.2z"/>
	</g>
</g>
<g id="圆角矩形_5_5_">
	<g>
		<path fill-rule="evenodd" clip-rule="evenodd" fill="#222222" d="M43.4,26.3l-7-7c0,0,0,0,0,0c0,0,0,0,0,0
			c-0.1-0.1-0.2-0.1-0.3-0.2c0,0,0,0,0,0C36,19,35.9,19,35.8,19c0,0-0.1,0-0.1,0c0,0-0.1,0-0.1,0c-0.1,0-0.2,0-0.3,0.1
			c0,0,0,0-0.1,0c-0.1,0-0.2,0.1-0.3,0.2c0,0,0,0,0,0c0,0,0,0,0,0l-7,7c-0.4,0.4-0.4,1.1,0,1.5s1,0.4,1.5,0l6.3-6.3l6.3,6.3
			c0.4,0.4,1.1,0.4,1.5,0C43.9,27.3,43.9,26.7,43.4,26.3z M35.7,22c-0.5,0-1,0.5-1,1.1V37c0,0.6,0.4,1.1,1,1.1c0.5,0,1-0.5,1-1.1
			V23.1C36.7,22.5,36.2,22,35.7,22z"/>
	</g>
</g>
<path fill-rule="evenodd" clip-rule="evenodd" fill="none" stroke="#222222" stroke-width="2" stroke-linecap="round" stroke-linejoin="round" stroke-miterlimit="10" d="
	M29.4,43H8.2c-1.4,0-2.5-1.1-2.5-2.5V23.1 M5.7,18.2v-2.5 M5.7,12V9.5C5.7,8.1,6.8,7,8.2,7h32c1.4,0,2.5,1.1,2.5,2.5V18 M42.7,34.9
	v5.6c0,1.4-1.1,2.5-2.5,2.5h-5"/>
<line fill="none" stroke="#222222" stroke-width="2" stroke-linecap="round" stroke-linejoin="round" stroke-miterlimit="10" x1="9.7" y1="15" x2="36.7" y2="15"/>
<line fill="none" stroke="#222222" stroke-width="2" stroke-linecap="round" stroke-linejoin="round" stroke-miterlimit="10" x1="9.7" y1="24" x2="22.7" y2="24"/>
<line fill="none" stroke="#222222" stroke-width="2" stroke-linecap="round" stroke-linejoin="round" stroke-miterlimit="10" x1="9.7" y1="35" x2="27.7" y2="35"/>
</svg>
