<?xml version="1.0" encoding="utf-8"?>
<!-- Generator: Adobe Illustrator 15.0.0, SVG Export Plug-In  -->
<!DOCTYPE svg PUBLIC "-//W3C//DTD SVG 1.1//EN" "http://www.w3.org/Graphics/SVG/1.1/DTD/svg11.dtd" [
	<!ENTITY ns_flows "http://ns.adobe.com/Flows/1.0/">
]>
<svg version="1.1"
	 xmlns="http://www.w3.org/2000/svg" xmlns:xlink="http://www.w3.org/1999/xlink" xmlns:a="http://ns.adobe.com/AdobeSVGViewerExtensions/3.0/"
	 x="0px" y="0px" width="49px" height="48px" viewBox="1 0.5 49 48" enable-background="new 1 0.5 49 48" xml:space="preserve">
<defs>
</defs>
<path fill="#FFFFFF" d="M41.9,5.9H7.9c-1.7,0-3,1.4-3,3v31.9c0,1.7,1.4,3,3,3h33.9c1.7,0,3-1.4,3-3V8.9C44.9,7.3,43.5,5.9,41.9,5.9z
	"/>
<path fill="#3BBDE8" d="M42.9,5.9H11.9c-1.7,0-3,1.3-3,3v32c0,1.7,1.4,3,3,3h30.9c1.7,0,3-1.3,3-3v-32C45.9,7.2,44.5,5.9,42.9,5.9z"
	/>
<path fill="#FFFFFF" d="M24.9,33l14.2-14.9c0,0,2.6-3.4,6.3,0.4c3.6,3.7,0.7,6.5,0.7,6.5L31,38.8l-8.5,2.4L24.9,33z"/>
<path fill="#FFDE00" d="M47.1,21.5c-2.7-3.5-6-0.3-6-0.3l-14,14.3l-2.8,6.7l7.5-2.3l14.7-13.3C46.6,26.6,48.8,23.6,47.1,21.5z"/>
<path fill="none" stroke="#222222" stroke-width="2" stroke-linecap="round" stroke-linejoin="round" stroke-miterlimit="10" d="
	M29.3,43.8H8c-1.7,0-3-1.3-3-3l0-17 M4.9,19.3v-3 M4.9,11.8v-3c0-1.7,1.4-3,3-3h31.9c1.7,0,3,1.3,3,3v4.9 M42.9,34.1v6.7
	c0,1.7-1.4,3-3,3h-6.1"/>
<path fill="#222222" d="M41.9,18.7c0.8,0,1.6,0.7,2.1,1.2c1.9,2,1.2,3.2,0.8,3.6L30,37l-4.6,1.3l1.3-4.2l13.9-14.6
	c0,0,0.1-0.1,0.1-0.1C40.7,19.3,41.2,18.7,41.9,18.7 M41.9,16.7c-1.7,0-2.8,1.4-2.8,1.4L24.9,33l-2.4,8.2l8.5-2.4L46.2,25
	c0,0,2.9-2.8-0.7-6.5C44.1,17.2,42.9,16.7,41.9,16.7L41.9,16.7z"/>
<line fill="none" stroke="#222222" stroke-width="2" stroke-linecap="round" stroke-linejoin="round" stroke-miterlimit="10" x1="26.4" y1="33.9" x2="30.1" y2="37.3"/>
<linearGradient id="SVGID_1_" gradientUnits="userSpaceOnUse" x1="11.3877" y1="14.8984" x2="33.376" y2="14.8984">
	<stop  offset="0" style="stop-color:#FFFFFF"/>
	<stop  offset="1" style="stop-color:#000000"/>
</linearGradient>
<line fill="url(#SVGID_1_)" stroke="#222222" stroke-width="2" stroke-linecap="round" stroke-linejoin="round" stroke-miterlimit="10" x1="11.4" y1="14.9" x2="33.4" y2="14.9"/>
<line fill="none" stroke="#222222" stroke-width="2" stroke-linecap="round" stroke-linejoin="round" stroke-miterlimit="10" x1="11.4" y1="22.9" x2="23.4" y2="22.9"/>
<line fill="none" stroke="#222222" stroke-width="2" stroke-linecap="round" stroke-linejoin="round" stroke-miterlimit="10" x1="11.9" y1="31.9" x2="16.9" y2="31.9"/>
<rect id="_x3C_切片_x3E__58_" fill="none" width="48" height="48"/>
</svg>
