<?xml version="1.0" encoding="utf-8"?>
<!-- Generator: Adobe Illustrator 15.0.0, SVG Export Plug-In  -->
<!DOCTYPE svg PUBLIC "-//W3C//DTD SVG 1.1//EN" "http://www.w3.org/Graphics/SVG/1.1/DTD/svg11.dtd" [
	<!ENTITY ns_flows "http://ns.adobe.com/Flows/1.0/">
]>
<svg version="1.1"
	 xmlns="http://www.w3.org/2000/svg" xmlns:xlink="http://www.w3.org/1999/xlink" xmlns:a="http://ns.adobe.com/AdobeSVGViewerExtensions/3.0/"
	 x="0px" y="0px" width="97px" height="97px" viewBox="0.531 -0.002 97 97" enable-background="new 0.531 -0.002 97 97"
	 xml:space="preserve">
<defs>
</defs>
<rect id="_x3C_切片_x3E__58_" fill-rule="evenodd" clip-rule="evenodd" fill="none" width="96" height="96"/>
<g>
	<path fill-rule="evenodd" clip-rule="evenodd" fill="#FFDE00" d="M48.765,93.998c-25.364,0-46-20.636-46-46s20.636-46,46-46
		s46,20.636,46,46S74.129,93.998,48.765,93.998z"/>
	<path fill="#FFFFFF" d="M48.765,2.998c24.853,0,45,20.147,45,45s-20.147,45-45,45s-45-20.147-45-45S23.912,2.998,48.765,2.998
		 M48.765,0.998c-25.916,0-47,21.084-47,47s21.084,47,47,47s47-21.084,47-47S74.681,0.998,48.765,0.998L48.765,0.998z"/>
</g>
<g>
	<path fill-rule="evenodd" clip-rule="evenodd" fill="#FFFFFF" d="M28.521,74.492c-4.412,0-8.001-3.517-8.001-7.84V36.616
		c0-3.752,2.715-7.006,6.251-7.877c0.817-4.475,3.677-7.235,7.743-7.235h28.029c4.048,0,6.97,2.892,7.764,7.419
		c3.286,1.049,6.222,3.999,6.222,7.693v30.036c0,4.323-3.59,7.84-8.002,7.84H28.521z"/>
	<path fill="#FFFFFF" d="M62.543,24.504c3.857,0,4.98,4.102,4.98,7.003H29.532c0-2.901,0.985-7.003,4.981-7.003H62.543
		 M67.762,31.512c2.762,0,5.768,2.432,5.768,5.104v30.036c0,2.673-2.24,4.84-5.002,4.84H28.521c-2.762,0-5.001-2.167-5.001-4.84
		V36.616c0-2.673,2.365-5.104,5.128-5.104H67.762 M62.543,18.504H34.514c-5.015,0-8.774,3.047-10.271,7.949
		c-3.915,1.741-6.723,5.694-6.723,10.163v30.036c0,5.978,4.935,10.84,11.001,10.84h40.007c6.066,0,11.002-4.862,11.002-10.84V36.616
		c0-4.218-2.796-8.066-6.673-9.928C71.374,21.7,67.542,18.504,62.543,18.504L62.543,18.504z"/>
</g>
<path fill-rule="evenodd" clip-rule="evenodd" fill="#3BBDE8" d="M69.762,31.512H30.647c-2.763,0-5.128,2.432-5.128,5.104v30.036
	c0,2.673,2.239,4.84,5.001,4.84h40.007c2.762,0,5.002-2.167,5.002-4.84V36.616C75.529,33.943,72.523,31.512,69.762,31.512z
	 M64.543,24.504H36.514c-3.996,0-4.981,4.102-4.981,7.003h37.991C69.523,28.605,68.4,24.504,64.543,24.504z"/>
<g id="矩形_1_副本_1_">
	<g>
		<rect x="25.521" y="42.507" fill-rule="evenodd" clip-rule="evenodd" fill="#FFFFFF" width="50.01" height="15.992"/>
	</g>
</g>
<g>
	<rect x="22.031" y="40.998" fill="#FFFFFF" width="53" height="19"/>
	<path fill="#222222" d="M73.531,42.498v16h-50v-16H73.531 M76.531,39.498h-56v22h56V39.498L76.531,39.498z"/>
</g>
<g id="椭圆_17_副本_8_3_">
	<g>
		<ellipse fill-rule="evenodd" clip-rule="evenodd" fill="#FFFFFF" cx="47.993" cy="48.955" rx="18.039" ry="18.044"/>
	</g>
</g>
<g id="椭圆_17_副本_8_2_">
	<g>
		<ellipse fill-rule="evenodd" clip-rule="evenodd" fill="#FFDE00" cx="50.026" cy="48.988" rx="16.499" ry="16.505"/>
	</g>
</g>
<g id="椭圆_17_副本_10_3_">
	<g>
		<ellipse fill-rule="evenodd" clip-rule="evenodd" fill="#FFFFFF" cx="48.443" cy="49.003" rx="9.075" ry="8.509"/>
	</g>
</g>
<g id="椭圆_17_副本_10_2_">
	<g>
		<ellipse fill-rule="evenodd" clip-rule="evenodd" fill="#3BBDE8" cx="49.443" cy="49.003" rx="7.93" ry="7.435"/>
	</g>
</g>
<path fill-rule="evenodd" clip-rule="evenodd" fill="none" stroke="#222222" stroke-width="4" stroke-linecap="round" stroke-linejoin="round" stroke-miterlimit="10" d="
	M38.415,6.257c3.314-0.819,6.782-1.254,10.35-1.254c23.748,0,43,19.251,43,43c0,5.574-1.061,10.9-2.991,15.788 M38.415,6.257
	 M83.884,72.82c-7.788,11.002-20.615,18.183-35.119,18.183c-23.749,0-43-19.252-43-43c0-10.154,3.52-19.486,9.406-26.844
	 M21.99,14.354c2.162-1.723,4.494-3.241,6.966-4.526"/>
<path fill-rule="evenodd" clip-rule="evenodd" fill="none" stroke="#222222" stroke-width="3" stroke-linecap="round" stroke-linejoin="round" stroke-miterlimit="10" d="
	M62.128,37.802c2.452,3.073,3.917,6.967,3.917,11.201c0,9.936-8.065,17.99-18.015,17.99s-18.015-8.055-18.015-17.99
	s8.066-17.989,18.015-17.989c2.295,0,4.49,0.429,6.509,1.21"/>
<path fill-rule="evenodd" clip-rule="evenodd" fill="none" stroke="#222222" stroke-width="3" stroke-linecap="round" stroke-linejoin="round" stroke-miterlimit="10" d="
	M39.541,48.987c0-4.692,4.025-8.497,8.991-8.497c4.965,0,8.991,3.805,8.991,8.497c0,4.693-4.025,8.498-8.991,8.498
	c-2.571,0-4.89-1.021-6.529-2.655"/>
<g>
	<path fill="#222222" d="M62.543,24.404c3.689,0,4.872,4.118,4.968,7.008h0.251c2.762,0,5.768,2.432,5.768,5.104v30.235
		c0,2.673-2.24,4.84-5.002,4.84H28.521c-2.762,0-5.001-2.167-5.001-4.84V36.517c0-2.673,2.365-5.104,5.128-5.104h0.896
		c0.085-2.89,1.148-7.008,4.97-7.008H62.543 M62.543,21.404H34.514c-3.922,0-6.759,2.755-7.667,7.218
		c-3.574,0.842-6.328,4.116-6.328,7.895v30.235c0,4.323,3.589,7.84,8.001,7.84h40.007c4.412,0,8.002-3.517,8.002-7.84V36.517
		c0-3.725-2.984-6.693-6.303-7.719C69.327,24.287,66.429,21.404,62.543,21.404L62.543,21.404z"/>
</g>
</svg>
