<?xml version="1.0" encoding="utf-8"?>
<!-- Generator: Adobe Illustrator 15.0.0, SVG Export Plug-In  -->
<!DOCTYPE svg PUBLIC "-//W3C//DTD SVG 1.1//EN" "http://www.w3.org/Graphics/SVG/1.1/DTD/svg11.dtd" [
	<!ENTITY ns_flows "http://ns.adobe.com/Flows/1.0/">
]>
<svg version="1.1"
	 xmlns="http://www.w3.org/2000/svg" xmlns:xlink="http://www.w3.org/1999/xlink" xmlns:a="http://ns.adobe.com/AdobeSVGViewerExtensions/3.0/"
	 x="0px" y="0px" width="64px" height="65px" viewBox="1 0 64 65" enable-background="new 1 0 64 65" xml:space="preserve">
<defs>
</defs>
<rect id="_x3C_切片_x3E__58_" fill-rule="evenodd" clip-rule="evenodd" fill="none" width="64" height="64"/>
<g id="形状_568_副本_2_1_">
	<g>
		<path fill-rule="evenodd" clip-rule="evenodd" fill="#FFFFFF" d="M54.4,23.8c0-11.6-9.4-21-21-21s-21,9.4-21,21
			c0,10.6,7.8,19.3,18,20.8v5.2h-5.2c-1.6,0-2.8,1.3-2.8,3c0,1.7,1.3,3,2.8,3h5.2V60c0,1.6,1.3,2.9,3,2.9s3-1.3,3-2.9v-4.1h5.1
			c1.6,0,2.8-1.3,2.8-3c0-1.7-1.3-3-2.8-3h-5.1v-5.3C46.6,43.1,54.4,34.4,54.4,23.8z M18.4,23.8c0-8.3,6.7-15,15-15s15,6.7,15,15
			c0,8.3-6.7,15-14.9,15c0,0,0,0,0,0s0,0,0,0C25.1,38.8,18.4,32.1,18.4,23.8z"/>
	</g>
</g>
<g id="形状_568_4_">
	<g>
		<path fill-rule="evenodd" clip-rule="evenodd" fill="#FF6699" d="M56.4,23.8c0-11.6-9.4-21-21-21s-21,9.4-21,21
			c0,10.6,7.8,19.3,18,20.8v5.2h-5.2c-1.6,0-2.8,1.3-2.8,3c0,1.7,1.3,3,2.8,3h5.2V60c0,1.6,1.3,2.9,3,2.9s3-1.3,3-2.9v-4.1h5.1
			c1.6,0,2.8-1.3,2.8-3c0-1.7-1.3-3-2.8-3h-5.1l0-5.3C48.6,43.1,56.4,34.4,56.4,23.8z M20.4,23.8c0-8.3,6.7-15,15-15s15,6.7,15,15
			c0,8.3-6.7,15-14.9,15c0,0,0,0,0,0s0,0,0,0C27.1,38.8,20.4,32.1,20.4,23.8z"/>
	</g>
</g>
<g>
	<path fill="#222222" d="M33.4,2.8c11.6,0,21,9.4,21,21c0,10.6-7.9,19.4-18.2,20.8v5.6h5.3c1.6,0,2.8,1.3,2.8,3c0,1.7-1.3,3-2.8,3
		h-5.3V60c0,1.6-1.3,2.9-3,2.9s-3-1.3-3-2.9v-3.7h-5c-1.6,0-2.8-1.3-2.8-3c0-1.7,1.3-3,2.8-3h5v-5.7C20.1,43,12.4,34.4,12.4,23.8
		C12.4,12.2,21.8,2.8,33.4,2.8C33.4,2.8,33.4,2.8,33.4,2.8 M33.4,38.8c8.3,0,15-6.7,15-15c0-8.3-6.7-15-15-15c0,0,0,0,0,0
		c-8.3,0-15,6.7-15,15C18.4,32.1,25.1,38.8,33.4,38.8C33.4,38.8,33.4,38.8,33.4,38.8 M33.4,0.8C33.4,0.8,33.4,0.8,33.4,0.8
		c-12.7,0-23,10.3-23,23c0,10.9,7.4,20,17.8,22.4v2h-3c-1.3,0-2.5,0.5-3.5,1.5c-0.9,0.9-1.4,2.2-1.4,3.5c0,2.8,2.2,5,4.8,5h3V60
		c0,2.7,2.2,4.9,5,4.9s5-2.2,5-4.9v-1.7h3.3c1.3,0,2.5-0.5,3.5-1.5c0.9-0.9,1.4-2.2,1.4-3.5c0-2.8-2.2-5-4.8-5h-3.3v-1.9
		C48.7,44,56.4,34.7,56.4,23.8c0-6.1-2.4-11.9-6.7-16.3C45.3,3.2,39.6,0.8,33.4,0.8L33.4,0.8z M33.4,38.8v-2c-7.2,0-13-5.8-13-13
		c0-7.2,5.8-13,13-13c7.2,0,13,5.8,13,13c0,7.2-5.8,13-13,13L33.4,38.8L33.4,38.8z"/>
</g>
</svg>
